<svg width="200" height="180" viewBox="0 0 200 180" fill="none" xmlns="http://www.w3.org/2000/svg">
<ellipse opacity="0.05" cx="104.424" cy="96.7846" rx="83.5374" ry="83.2157" fill="#17BD8D"/>
<path fill-rule="evenodd" clip-rule="evenodd" d="M104.798 66.2216C106.831 85.9699 95.1788 94.2063 91.877 96.1227C91.9042 96.3266 91.9179 96.544 91.9179 96.7615V124.937L97.3482 127.913H125.905C125.96 127.913 126.028 127.913 126.082 127.927C132.659 128.824 132.918 121.077 132.918 120.112C132.877 119.622 133.15 119.133 133.627 118.929C137.748 117.162 136.002 111.617 135.838 111.141C135.62 110.584 135.879 109.945 136.424 109.673C141.773 107.091 138.403 102.443 137.966 101.858C137.612 101.478 137.557 100.893 137.843 100.431C147.531 85.6301 117.268 89.2862 115.331 89.5309C115.181 89.558 115.017 89.5716 114.853 89.5309C114.212 89.4085 113.803 88.7969 113.926 88.1581C118.442 65.3653 108.031 65.6099 104.771 66.1944L104.798 66.2216Z" fill="#17BD8D"/>
<path fill-rule="evenodd" clip-rule="evenodd" d="M89.9805 125.277V96.7624C89.9805 96.0828 89.7076 95.4712 89.2573 95.0363C88.8071 94.5877 88.1931 94.3159 87.5245 94.3159H72.3797C71.6975 94.3159 71.0836 94.5877 70.647 95.0363C70.1967 95.4848 69.9238 96.0964 69.9238 96.7624V125.277C69.9238 125.957 70.1967 126.568 70.647 127.003C71.0972 127.452 71.7112 127.724 72.3797 127.724H87.5245C88.2067 127.724 88.8207 127.452 89.2573 127.003C89.6257 126.636 89.8713 126.161 89.9532 125.631C89.9532 125.549 89.9532 125.454 89.9805 125.372C89.9805 125.345 89.9805 125.304 89.9805 125.277Z" fill="#17BD8D"/>
<path opacity="0.1" d="M126.004 6.37558C125.222 6.16257 124.443 6.17117 123.553 6.181C123.33 6.18345 123.108 6.18591 122.885 6.18837C123.987 5.17882 125.089 4.16927 125.854 2.94179C126.073 2.60691 125.624 2.2794 125.404 2.50347C124.08 3.51548 122.868 4.63707 121.656 5.75866C121.64 4.31816 121.624 2.87767 121.608 1.43718C121.601 0.772336 120.599 0.783394 120.607 1.44824C120.623 2.88873 120.64 4.44003 120.656 5.88052C119.644 4.89432 118.632 4.01892 117.621 3.14352C117.172 2.81601 116.622 3.37619 117.071 3.7037C117.859 4.58156 118.648 5.45941 119.548 6.33604C118.436 6.34833 117.323 6.36061 116.211 6.48371C115.766 6.48862 115.774 7.15347 116.219 7.14855C117.555 7.24461 118.779 7.2311 120.003 7.21758C119.012 8.1151 118.021 9.12342 117.142 10.1305C116.702 10.5787 117.376 11.1253 117.817 10.788C118.809 9.89047 119.802 9.10376 120.682 8.20747C120.696 9.42635 120.71 10.756 120.946 11.9725C120.949 12.1941 121.394 12.1892 121.503 11.9663C121.713 10.8558 121.7 9.63691 121.686 8.41803C122.022 8.63596 122.249 8.96592 122.585 9.18385C123.259 9.73051 123.932 10.2772 124.605 10.713C124.83 10.9322 125.16 10.5961 124.935 10.3769C124.371 9.71822 123.919 9.0583 123.355 8.3996C123.016 7.96005 122.568 7.63255 122.23 7.30381C122.786 7.29767 123.231 7.29275 123.788 7.28661C124.678 7.27678 125.346 7.26941 126.233 7.03796C126.344 6.92593 126.339 6.4827 126.004 6.37558Z" fill="#171416"/>
<path opacity="0.1" d="M10.9073 62.2933C10.1259 62.0803 9.34696 62.0889 8.45676 62.0987C8.2342 62.1012 8.01165 62.1036 7.7891 62.1061C8.89076 61.0965 9.99242 60.087 10.7578 58.8595C10.9766 58.5246 10.5278 58.1971 10.3078 58.4212C8.87103 59.3236 7.66056 60.556 6.44886 61.6776C6.43283 60.2371 6.4168 58.7966 6.40077 57.3561C6.39337 56.6913 5.39189 56.7023 5.39929 57.3672C5.41532 58.8077 5.43258 60.359 5.44861 61.7995C4.43603 60.8133 3.42469 59.9379 2.41334 59.0625C1.96454 58.735 1.41433 59.2951 1.86313 59.6226C2.65192 60.5005 3.44072 61.3784 4.34079 62.255C3.22803 62.2673 2.11527 62.2796 1.00375 62.4027C0.558647 62.4076 0.566046 63.0724 1.01115 63.0675C2.34769 63.1636 3.57172 63.15 4.79575 63.1365C3.80414 64.034 2.81375 65.0424 1.93465 66.0495C1.49448 66.4976 2.1683 67.0443 2.6097 66.7069C3.60132 65.8094 4.59417 65.0227 5.47451 64.1264C5.48807 65.3453 5.50287 66.675 5.73898 67.8914C5.74145 68.113 6.18655 68.1081 6.29536 67.8853C6.50558 66.7747 6.49202 65.5559 6.47845 64.337C6.81475 64.5549 7.041 64.8849 7.37729 65.1028C8.05111 65.6495 8.72493 66.1961 9.39752 66.632C9.62253 66.8511 9.95266 66.515 9.72765 66.2959C9.16387 65.6372 8.71137 64.9772 8.14759 64.3185C7.80883 63.879 7.36003 63.5515 7.0225 63.2228C7.57888 63.2166 8.02398 63.2117 8.58036 63.2056C9.47057 63.1957 10.1382 63.1883 11.026 62.9569C11.136 62.8449 11.1311 62.4016 10.9073 62.2933Z" fill="#171416"/>
<path d="M29.6415 25.6273C28.4101 24.976 27.2899 24.3235 26.3874 23.2252C25.3723 22.0174 24.9112 20.5818 24.2275 19.1487C24.2275 19.1487 24.2263 19.0379 24.115 19.0391L24.0037 19.0404C24.0037 19.0404 24.0037 19.0404 23.8937 19.1524C23.8937 19.1524 23.8937 19.1524 23.8949 19.2632C23.5944 22.2587 21.8374 24.3837 19.6328 26.292C19.5228 26.404 19.5253 26.6256 19.6378 26.7352C22.0982 27.8162 23.8006 30.7896 24.6067 33.2187C24.7204 33.4391 25.0542 33.4354 25.163 33.2126C25.5921 31.7672 25.9111 30.4338 26.6753 29.0955C27.4394 27.7572 28.4298 26.7489 29.6452 25.9598C29.7552 25.8477 29.7528 25.6261 29.6415 25.6273Z" fill="#17BD8D"/>
<path d="M199.67 58.8677C198.439 58.2164 197.319 57.5639 196.528 56.4644C195.512 55.2566 195.051 53.821 194.368 52.3879C194.368 52.3879 194.366 52.2771 194.255 52.2783L194.144 52.2795C194.144 52.2795 194.144 52.2795 194.034 52.3916C194.034 52.3916 194.034 52.3916 194.035 52.5024C193.735 55.4978 191.978 57.6228 189.773 59.5311C189.663 59.6432 189.665 59.8648 189.778 59.9744C192.238 61.0554 193.941 64.0288 194.747 66.4579C194.861 66.6783 195.194 66.6746 195.303 66.4518C195.732 65.0064 196.051 63.673 196.815 62.3347C197.58 60.9964 198.57 59.9881 199.785 59.1989C199.785 59.1989 199.783 58.9773 199.67 58.8677Z" fill="#17BD8D"/>
<path d="M118.13 31.6195C117.235 31.1861 116.562 30.7503 115.886 29.982C115.208 29.1029 114.863 28.1093 114.296 27.1182C114.296 27.1182 114.296 27.1182 114.185 27.1195L114.073 27.1207C114.073 27.1207 114.073 27.1207 114.074 27.2315C113.875 29.3393 112.667 30.7933 111.124 32.1402C111.014 32.2522 111.015 32.363 111.127 32.3618C112.916 33.1178 114.052 35.2108 114.627 36.8668C114.629 37.0884 114.963 37.0847 114.961 36.8631C115.172 35.8634 115.495 34.8624 116.041 33.9698C116.588 33.0772 117.248 32.405 118.132 31.8412C118.243 31.8399 118.241 31.6183 118.13 31.6195Z" fill="#17BD8D"/>
<path d="M89.7484 51.3817C88.182 50.6232 86.9494 49.8611 85.9331 48.5425C84.6919 47.0047 84.1171 45.3487 83.3185 43.5844C83.3185 43.5844 83.3172 43.4736 83.206 43.4748L83.0947 43.476C83.0947 43.476 82.9834 43.4773 82.9846 43.5881L82.9859 43.6989C82.5803 47.2496 80.4957 49.9323 77.8499 52.178C77.7399 52.29 77.7436 52.6224 77.9661 52.62C80.9852 53.9165 83.0275 57.4402 83.951 60.4222C84.0659 60.7534 84.511 60.7484 84.6186 60.4148C85.0452 58.7478 85.583 57.0795 86.4559 55.5184C87.3288 53.9573 88.5392 52.7249 90.0871 51.8212C89.8646 51.8237 89.9721 51.49 89.7484 51.3817Z" fill="#17BD8D"/>
<path d="M63.0626 23.4726C61.4802 21.2737 59.899 19.1856 57.8764 17.4348C56.7538 16.5606 55.6313 15.6864 54.3999 15.0351C53.7286 14.71 53.0585 14.4958 52.3872 14.1708C52.0521 14.0636 51.7171 13.9565 51.3808 13.7386C51.0458 13.6315 50.8208 13.4123 50.4882 13.5268C50.2657 13.5293 50.1556 13.6413 50.2694 13.8617C50.3868 14.4145 51.0581 14.7395 51.5069 15.067C52.0682 15.5041 52.6282 15.8304 53.1895 16.2675C54.3108 17.0309 55.4334 17.905 56.4447 18.7804C58.356 20.5324 59.9347 22.399 61.4047 24.4883C62.0834 25.4782 63.7426 24.5733 63.0626 23.4726Z" fill="#979AB8"/>
<path d="M62.2737 67.933C61.3601 65.8375 59.2336 64.7528 57.1096 63.8897C54.9857 63.0266 52.5291 62.278 50.3074 62.635C48.1957 62.8799 45.8739 64.2354 45.1172 66.2385C44.5769 67.6852 44.044 69.7966 45.3915 70.89C46.0665 71.5474 47.2917 71.6447 47.9519 70.9725C49.0535 69.963 48.0349 68.4227 47.1361 67.6569C43.4272 64.3732 37.2023 64.9961 33.1062 66.9253C30.5594 68.0616 28.355 69.9699 27.0481 72.5332C25.9576 74.54 24.7731 78.0994 26.243 80.1887C26.4692 80.5187 26.9143 80.5138 27.1332 80.1789C28.3386 78.5033 28.3115 76.0655 29.1819 74.2828C30.0511 72.3892 31.4804 70.8219 33.1383 69.8062C36.563 67.552 42.448 66.3788 46.0357 68.7773C46.4845 69.1048 47.7171 69.8669 47.0569 70.5391C46.5067 71.0993 45.6104 70.5551 45.2716 70.1156C43.9093 67.6925 47.1065 64.9975 49.1032 64.4214C51.0998 63.8452 53.4427 64.3735 55.3429 65.1282C57.4644 65.7697 59.9259 66.9616 61.1696 68.721C61.7284 68.9364 62.5024 68.4846 62.2737 67.933Z" fill="#979AB8"/>
<path d="M159.956 50.3296C160.067 50.3283 160.066 50.2171 159.955 50.2183C159.843 50.2195 159.845 50.3308 159.956 50.3296Z" fill="#373536"/>
<path d="M160.937 48.4346C162.789 44.8679 166.642 41.0574 170.996 42.3392C172.559 42.7652 174.578 44.1836 174.378 46.1806C174.281 47.5115 172.713 46.6422 172.151 46.0944C170.8 44.6686 171.439 42.1127 171.865 40.4456C172.508 38.2221 173.932 36.1008 175.808 34.7503C177.353 33.5142 179.46 32.9368 181.35 32.6943C183.461 32.4493 185.36 33.0933 187.368 33.5144C188.148 33.6166 188.695 32.724 188.132 32.1761C186.668 30.6408 184.107 30.4474 182.106 30.6912C179.995 30.9361 177.775 31.5147 176.009 32.7533C172.474 35.1195 169.859 40.1353 170.24 44.3423C170.483 46.2236 172.97 49.7424 175.062 47.7245C176.054 46.827 175.702 45.1686 175.244 44.0654C174.447 42.4119 172.654 41.3235 170.98 40.8987C165.958 39.6243 162.111 43.878 160.266 48.1095C160.158 48.4432 160.719 48.7695 160.937 48.4346Z" fill="#979AB8"/>
<path d="M64.6733 43.8581C63.0909 41.6592 61.0695 40.0192 58.7206 38.9369C57.4904 38.3964 56.2615 37.9667 55.0351 37.7586C53.9199 37.5492 52.2497 37.4569 51.2544 38.0219C51.0331 38.1352 51.0368 38.4676 51.2618 38.6868C52.1581 39.231 53.4946 39.3271 54.4985 39.5376C55.7261 39.8565 56.7313 40.1779 57.8501 40.7196C59.9753 41.6936 61.9942 43.1119 63.4605 44.8689C64.0242 45.5276 65.2383 44.6276 64.6733 43.8581Z" fill="#979AB8"/>
<path d="M39.2772 51.5634C40.2763 51.3307 41.3878 51.2076 42.3893 51.1966C42.9456 51.1904 43.502 51.1843 44.0584 51.1781C44.3922 51.1744 44.7261 51.1707 44.9474 51.0575C45.1687 50.9442 45.3912 50.9418 45.6126 50.8285C45.8339 50.7152 45.8302 50.3828 45.6064 50.2745C45.3826 50.1661 45.1588 50.0578 45.0463 49.9482C44.8225 49.8398 44.3774 49.8447 44.1536 49.7364C43.5973 49.7425 43.0409 49.7487 42.3745 49.8669C41.2629 49.99 40.1527 50.2239 39.0436 50.5686C38.3772 50.6867 38.6108 51.6816 39.2772 51.5634Z" fill="#979AB8"/>
<path d="M157.814 77.9476C160.909 76.0295 164.23 74.4413 167.779 73.4047C169.443 72.9431 171.219 72.4802 172.997 72.2389C173.997 72.1171 174.886 71.9964 175.886 71.8746C176.665 71.866 177.444 71.8574 178.108 71.5176C178.329 71.4043 178.325 71.0719 178.101 70.9635C177.319 70.6397 176.541 70.7591 175.651 70.7689C174.65 70.78 173.761 70.9006 172.759 70.9117C170.869 71.0434 168.981 71.3967 167.094 71.8608C163.321 72.789 160.001 74.488 156.913 76.9602C156.473 77.4083 157.15 78.2874 157.814 77.9476Z" fill="#979AB8"/>
<path d="M151.64 72.8072C154.279 70.0075 157.708 68.0857 161.025 66.1651C162.684 65.2602 164.453 64.2433 166.225 63.448C167.221 62.9937 168.107 62.5406 168.992 62.0876C169.877 61.6345 170.876 61.4019 171.76 60.838C171.981 60.7247 171.978 60.3923 171.643 60.2852C170.75 60.0734 169.752 60.4169 168.863 60.5375C167.752 60.6606 166.754 61.0041 165.758 61.4584C163.765 62.3669 161.773 63.3863 159.894 64.5153C156.244 66.5504 153.041 68.6913 150.518 72.0438C150.079 72.6028 151.088 73.2565 151.64 72.8072Z" fill="#979AB8"/>
<path d="M133.361 20.3693C133.246 20.0381 133.243 19.7057 133.126 19.2637C133.124 19.0421 133.011 18.9325 133.01 18.8217C133.009 18.7109 133.008 18.6001 132.895 18.4905C132.894 18.3797 132.783 18.3809 132.781 18.2701C132.669 18.1606 132.556 18.051 132.445 18.0522C132.334 18.0534 132.224 18.1655 132.114 18.2775C132.115 18.3883 132.004 18.3895 132.005 18.5004C132.006 18.6112 132.007 18.722 132.009 18.8328C132.011 19.0544 132.014 19.276 132.127 19.4964C132.131 19.8288 132.246 20.16 132.361 20.4912L132.36 20.3804L132.361 20.4912C132.362 20.602 132.476 20.8224 132.588 20.932C132.701 21.0415 132.925 21.1499 133.035 21.0379C133.146 21.0366 133.367 20.9234 133.366 20.8126C133.366 20.8126 133.364 20.5909 133.361 20.3693Z" fill="#171416"/>
<path d="M137.988 36.2769C138.067 33.3947 138.929 30.8363 139.901 28.1658C140.443 26.83 140.985 25.605 141.639 24.3787C142.294 23.1525 142.95 22.1478 143.269 20.8145C143.267 20.5929 143.04 20.2629 142.82 20.487C142.269 20.9363 141.939 21.2724 141.5 21.8314C141.172 22.3891 140.846 23.0576 140.518 23.6154C139.865 24.9524 139.212 26.2895 138.672 27.7361C137.7 30.4065 137.177 33.4045 137.098 36.2867C137.215 36.8395 137.994 36.8309 137.988 36.2769Z" fill="#979AB8"/>
<path d="M147.349 17.555C147.458 17.3322 147.568 17.2201 147.677 16.9973C147.677 16.9973 147.678 17.1081 147.567 17.1093C147.567 17.1093 147.565 16.9985 147.677 16.9973L147.787 16.8853C147.897 16.7732 147.897 16.7732 148.007 16.6612C148.226 16.3263 148.557 16.101 148.776 15.7661C148.995 15.4313 149.326 15.206 149.545 14.8711C149.654 14.6482 149.875 14.535 149.984 14.3121C149.983 14.2013 150.094 14.2001 150.093 14.0893C150.203 13.9772 150.201 13.8664 150.2 13.7556C150.309 13.5328 150.083 13.2028 149.749 13.2065C149.638 13.2077 149.526 13.209 149.304 13.2114C149.193 13.2127 149.194 13.3235 149.083 13.3247C149.083 13.3247 149.083 13.3247 148.971 13.3259C149.083 13.3247 149.083 13.3247 148.971 13.3259C148.749 13.3284 148.529 13.5525 148.307 13.6657C147.865 13.8922 147.535 14.2284 147.204 14.5645C146.874 14.9006 146.544 15.2367 146.327 15.6824C146.108 16.0172 145.779 16.4642 145.671 16.7978C145.452 17.1327 145.57 17.6855 146.017 17.9022C146.686 18.0056 147.13 17.8899 147.349 17.555Z" fill="#979AB8"/>
<path d="M143.686 38.3185C144.01 37.4284 144.446 36.6478 144.77 35.7577C145.094 34.8675 145.419 34.0882 145.855 33.1968C146.291 32.4163 146.615 31.5261 147.052 30.7455C147.488 29.965 148.147 29.182 148.248 28.2943C148.245 27.9618 147.91 27.8547 147.687 27.8572C146.799 28.0886 146.365 29.0908 145.816 29.7618C145.157 30.5448 144.722 31.4362 144.287 32.3276C143.852 33.2189 143.528 34.1091 143.205 35.11C143.099 35.5545 142.881 36.0002 142.887 36.5542C142.781 36.9987 142.787 37.5527 142.792 37.9959C142.687 38.5512 143.468 38.7642 143.686 38.3185Z" fill="#979AB8"/>
<path d="M149.784 26.172C150 25.6155 150.329 25.1685 150.658 24.7216C151.095 24.0519 151.309 23.2738 151.748 22.7148C152.187 22.1559 152.741 21.9281 153.292 21.4787C153.844 21.0294 154.395 20.58 154.945 20.0198C157.037 18.0019 159.466 16.202 162.009 14.7332C162.673 14.3934 163.337 14.0537 164 13.7139C164.443 13.4873 165.106 13.0367 164.766 12.4864C164.197 11.3845 161.988 12.8495 161.324 13.1893C158.781 14.6581 156.69 16.7867 154.374 18.6963C153.712 19.1469 153.161 19.7071 152.611 20.2672C152.061 20.8274 151.625 21.608 151.074 22.1682C150.524 22.7283 149.86 23.0681 149.31 23.6283C148.87 24.0764 148.544 24.745 148.328 25.4123C147.893 26.3036 149.238 27.1754 149.784 26.172Z" fill="#979AB8"/>
<path opacity="0.5" d="M97.1062 32.6275C97.5414 31.7362 97.6404 30.6269 97.518 29.6308C97.5057 28.5228 97.3821 27.4159 97.1484 26.4211C97.1459 26.1995 96.7008 26.2044 96.7033 26.426C96.6031 27.4245 96.6142 28.4218 96.6266 29.5299C96.6364 30.4163 96.6475 31.4136 96.3223 32.1929C96.1059 32.7494 96.8898 33.184 97.1062 32.6275Z" fill="#979AB8"/>
<g opacity="0.5">
<path d="M97.1671 18.2205C97.156 17.2232 97.2562 16.2247 97.1351 15.3395C97.0127 14.3435 96.669 13.4607 96.1028 12.5804C95.989 12.36 95.5452 12.4757 95.6601 12.8069C96.125 14.5749 96.1459 16.4586 96.1669 18.3424C96.0618 18.8976 97.1745 18.8853 97.1671 18.2205Z" fill="#979AB8"/>
</g>
<path opacity="0.5" d="M92.1667 8.74461C91.9343 7.86061 91.5906 6.97784 91.1369 6.2071C90.9106 5.87714 90.7944 5.43514 90.5682 5.10517C90.3419 4.77521 90.112 4.11283 89.6669 4.11774C89.4443 4.1202 89.2218 4.12266 89.113 4.3455C88.8953 4.79118 89.2341 5.23073 89.4616 5.6715C89.6878 6.00146 89.9153 6.44223 90.0303 6.77343C90.484 7.54416 90.8265 8.31612 91.0577 9.08932C91.2876 9.7517 92.3967 9.40699 92.1667 8.74461Z" fill="#979AB8"/>
<path opacity="0.5" d="M97.2667 7.13674C97.4794 6.24783 97.5795 5.24933 97.6797 4.25084C97.6748 3.80761 97.6686 3.25358 97.6637 2.81035C97.6588 2.36712 97.6526 1.81308 97.4251 1.37231C97.3101 1.04112 96.865 1.04604 96.7575 1.37969C96.5398 1.82537 96.546 2.37941 96.5509 2.82264C96.5559 3.26586 96.5608 3.70909 96.5657 4.15232C96.5756 5.03878 96.4742 5.92646 96.3728 6.81415C96.3752 7.03576 96.4902 7.36696 96.7128 7.3645C96.9378 7.58366 97.2704 7.46916 97.2667 7.13674Z" fill="#979AB8"/>
<path opacity="0.5" d="M101.532 10.3035C101.742 9.19299 102.176 8.19081 102.723 7.29821C103.269 6.40561 104.04 5.62135 104.698 4.72752C104.806 4.50468 104.691 4.17349 104.47 4.28675C103.25 4.63269 102.371 5.63979 101.825 6.64319C101.169 7.64783 100.848 8.87039 100.638 9.98092C100.423 10.6482 101.428 10.9696 101.532 10.3035Z" fill="#979AB8"/>
<path d="M175.13 53.8195C175.24 53.7075 175.239 53.5967 175.349 53.4847C175.458 53.2618 175.567 53.039 175.564 52.8174C175.562 52.5958 175.56 52.4849 175.669 52.2621L175.668 52.1513C175.667 52.0405 175.666 51.9297 175.664 51.8189C175.662 51.5973 175.659 51.3756 175.546 51.1553C175.543 50.9336 175.431 50.8241 175.318 50.7145C175.091 50.2737 174.642 49.9462 174.084 49.8415C174.308 49.9499 174.532 50.0582 174.757 50.2774C174.532 50.0582 174.308 49.9499 174.086 49.9524C173.862 49.844 173.639 49.8465 173.529 49.9585C173.307 49.961 173.197 50.073 172.975 50.1863C172.754 50.2995 172.534 50.5236 172.425 50.7464C172.756 50.5211 172.977 50.2971 173.308 50.0718C173.197 50.073 173.087 50.185 172.975 50.1863C172.754 50.2995 172.533 50.4128 172.423 50.5248C172.313 50.6369 172.202 50.7489 172.092 50.8609C172.094 50.9717 171.982 50.973 171.984 51.0838C171.985 51.1946 171.875 51.3066 171.876 51.4174C171.986 51.3054 171.984 51.0838 172.094 50.9717C172.095 51.0825 171.984 51.0838 171.985 51.1946C171.986 51.3054 171.875 51.3066 171.876 51.4174C171.766 51.5295 171.768 51.7511 171.658 51.8631C171.55 52.0859 171.441 52.3088 171.445 52.6412C171.336 52.8641 171.451 53.1953 171.453 53.4169C171.567 53.6372 171.681 53.8576 171.794 54.078C171.908 54.2984 172.133 54.5176 172.357 54.6259C172.469 54.7355 172.692 54.733 172.805 54.8426C173.14 54.9497 173.585 54.9448 173.917 54.8303C174.027 54.7183 174.25 54.7158 174.36 54.6038C174.803 54.3773 175.021 54.0424 175.13 53.8195Z" fill="#979AB8"/>
<path d="M170.696 15.413C170.695 15.3022 170.584 15.3034 170.583 15.1926C170.47 15.0831 170.358 14.9735 170.356 14.8627C170.356 14.8627 170.244 14.7531 170.133 14.7543C169.909 14.646 169.908 14.5352 169.573 14.428C169.461 14.4293 169.237 14.3209 169.126 14.3222C169.015 14.3234 168.792 14.3258 168.792 14.3258L168.46 14.4403C168.238 14.5536 168.128 14.6656 168.02 14.8885C167.91 15.0005 167.91 15.0005 167.911 15.1113C167.912 15.2221 167.801 15.2234 167.802 15.3342C167.693 15.557 167.586 15.8907 167.589 16.2231C167.593 16.5555 167.707 16.7759 167.822 17.1071C168.162 17.6574 168.722 17.9837 169.278 17.9776C169.835 17.9714 170.499 17.6316 170.715 17.0751C170.824 16.8523 170.931 16.5186 170.928 16.1862C170.925 15.9646 170.811 15.7442 170.696 15.413Z" fill="#979AB8"/>
<path d="M88.8405 29.616C87.917 26.6341 88.3264 23.4157 88.8495 20.4178C88.847 20.1962 88.6232 20.0878 88.5144 20.3107C87.4349 23.3148 87.1393 26.7535 88.0641 29.8462C88.0702 30.4003 88.958 30.1688 88.8405 29.616Z" fill="#171416"/>
</svg>
