<svg width="20" height="20" viewBox="0 0 20 20" fill="none" xmlns="http://www.w3.org/2000/svg">
<path d="M15.8333 9.16665H7.5L10.2417 6.42499C10.3198 6.34752 10.3818 6.25535 10.4241 6.1538C10.4664 6.05225 10.4882 5.94333 10.4882 5.83332C10.4882 5.72331 10.4664 5.61439 10.4241 5.51284C10.3818 5.41129 10.3198 5.31912 10.2417 5.24166C10.0855 5.08645 9.87432 4.99933 9.65417 4.99933C9.43401 4.99933 9.2228 5.08645 9.06667 5.24166L5.49167 8.82498C5.17868 9.13611 5.00186 9.55867 5 9.99998C5.00406 10.4384 5.1807 10.8576 5.49167 11.1666L9.06667 14.75C9.14437 14.8271 9.2365 14.8882 9.33781 14.9298C9.43912 14.9713 9.54762 14.9925 9.65711 14.9921C9.76661 14.9917 9.87496 14.9698 9.97597 14.9275C10.077 14.8853 10.1687 14.8235 10.2458 14.7458C10.323 14.6681 10.3841 14.576 10.4256 14.4747C10.4672 14.3734 10.4883 14.2649 10.488 14.1554C10.4876 14.0459 10.4656 13.9375 10.4234 13.8365C10.3811 13.7355 10.3194 13.6438 10.2417 13.5666L7.5 10.8333H15.8333C16.0543 10.8333 16.2663 10.7455 16.4226 10.5892C16.5789 10.433 16.6667 10.221 16.6667 9.99998C16.6667 9.77897 16.5789 9.56701 16.4226 9.41073C16.2663 9.25445 16.0543 9.16665 15.8333 9.16665Z" fill="white"/>
</svg>
