<svg width="205" height="24" viewBox="0 0 205 24" fill="none" xmlns="http://www.w3.org/2000/svg">
<rect x="0.56867" y="0.56867" width="38.8626" height="22.8627" rx="3.98069" fill="white" stroke="#D6D8EA" stroke-width="1.13734"/>
<path d="M16 19C19.866 19 23 15.866 23 12C23 8.13401 19.866 5 16 5C12.134 5 9 8.13401 9 12C9 15.866 12.134 19 16 19Z" fill="#EB001B"/>
<path d="M24 18.9999C27.866 18.9999 31 15.8659 31 11.9999C31 8.13388 27.866 4.99988 24 4.99988C20.134 4.99988 17 8.13388 17 11.9999C17 15.8659 20.134 18.9999 24 18.9999Z" fill="#F79E1B"/>
<path d="M23 11.9997C23 9.59968 21.8 7.49968 20 6.29968C18.2 7.59968 17 9.69968 17 11.9997C17 14.2997 18.2 16.4997 20 17.6997C21.8 16.4997 23 14.3997 23 11.9997Z" fill="#FF5F00"/>
<rect x="50.5687" y="0.56867" width="38.8626" height="22.8627" rx="3.98069" fill="white" stroke="#D6D8EA" stroke-width="1.13734"/>
<path d="M80.3 10.1001H80C79.6 11.1001 79.3 11.6001 79 13.1001H80.9C80.6 11.6001 80.6 10.9001 80.3 10.1001ZM83.2 16.0001H81.5C81.4 16.0001 81.4 16.0001 81.3 15.9001L81.1 15.0001L81 14.8001H78.6C78.5 14.8001 78.4 14.8001 78.4 15.0001L78.1 15.9001C78.1 16.0001 78 16.0001 78 16.0001H75.9L76.1 15.5001L79 8.70012C79 8.20012 79.3 8.00012 79.8 8.00012H81.3C81.4 8.00012 81.5 8.00012 81.5 8.20012L82.9 14.7001C83 15.1001 83.1 15.4001 83.1 15.8001C83.2 15.9001 83.2 15.9001 83.2 16.0001ZM69.8 15.7001L70.2 13.9001C70.3 13.9001 70.4 14.0001 70.4 14.0001C71.1 14.3001 71.8 14.5001 72.5 14.4001C72.7 14.4001 73 14.3001 73.2 14.2001C73.7 14.0001 73.7 13.5001 73.3 13.1001C73.1 12.9001 72.8 12.8001 72.5 12.6001C72.1 12.4001 71.7 12.2001 71.4 11.9001C70.2 10.9001 70.6 9.50012 71.3 8.80012C71.9 8.40012 72.2 8.00012 73 8.00012C74.2 8.00012 75.5 8.00012 76.1 8.20012H76.2C76.1 8.80012 76 9.30012 75.8 9.90012C75.3 9.70012 74.8 9.50012 74.3 9.50012C74 9.50012 73.7 9.50012 73.4 9.60012C73.2 9.60012 73.1 9.70012 73 9.80012C72.8 10.0001 72.8 10.3001 73 10.5001L73.5 10.9001C73.9 11.1001 74.3 11.3001 74.6 11.5001C75.1 11.8001 75.6 12.3001 75.7 12.9001C75.9 13.8001 75.6 14.6001 74.8 15.2001C74.3 15.6001 74.1 15.8001 73.4 15.8001C72 15.8001 70.9 15.9001 70 15.6001C69.9 15.8001 69.9 15.8001 69.8 15.7001ZM66.3 16.0001C66.4 15.3001 66.4 15.3001 66.5 15.0001C67 12.8001 67.5 10.5001 67.9 8.30012C68 8.10012 68 8.00012 68.2 8.00012H70C69.8 9.20012 69.6 10.1001 69.3 11.2001C69 12.7001 68.7 14.2001 68.3 15.7001C68.3 15.9001 68.2 15.9001 68 15.9001L66.3 16.0001ZM57 8.20012C57 8.10012 57.2 8.00012 57.3 8.00012H60.7C61.2 8.00012 61.6 8.30012 61.7 8.80012L62.6 13.2001C62.6 13.3001 62.6 13.3001 62.7 13.4001C62.7 13.3001 62.8 13.3001 62.8 13.3001L64.9 8.20012C64.8 8.10012 64.9 8.00012 65 8.00012H67.1C67.1 8.10012 67.1 8.10012 67 8.20012L63.9 15.5001C63.8 15.7001 63.8 15.8001 63.7 15.9001C63.6 16.0001 63.4 15.9001 63.2 15.9001H61.7C61.6 15.9001 61.5 15.9001 61.5 15.7001L59.9 9.50012C59.7 9.30012 59.4 9.00012 59 8.90012C58.4 8.60012 57.3 8.40012 57.1 8.40012L57 8.20012Z" fill="#142688"/>
<rect x="150.569" y="0.56867" width="53.8627" height="22.8627" rx="3.98069" fill="white" stroke="#D6D8EA" stroke-width="1.13734"/>
<path d="M162.344 16L161.312 14.968C160.912 15.368 160.476 15.668 160.004 15.868C159.532 16.06 159.004 16.156 158.42 16.156C157.828 16.156 157.304 16.052 156.848 15.844C156.392 15.636 156.04 15.34 155.792 14.956C155.544 14.564 155.42 14.112 155.42 13.6C155.42 13.024 155.584 12.512 155.912 12.064C156.24 11.608 156.728 11.248 157.376 10.984C157.144 10.704 156.98 10.444 156.884 10.204C156.788 9.956 156.74 9.684 156.74 9.388C156.74 9.02 156.832 8.692 157.016 8.404C157.208 8.116 157.48 7.888 157.832 7.72C158.184 7.552 158.592 7.468 159.056 7.468C159.528 7.468 159.928 7.56 160.256 7.744C160.592 7.92 160.84 8.164 161 8.476C161.168 8.788 161.236 9.136 161.204 9.52H159.836C159.844 9.224 159.772 8.996 159.62 8.836C159.468 8.668 159.26 8.584 158.996 8.584C158.732 8.584 158.516 8.664 158.348 8.824C158.188 8.976 158.108 9.164 158.108 9.388C158.108 9.604 158.168 9.82 158.288 10.036C158.416 10.244 158.636 10.516 158.948 10.852L161.156 13.048L162.008 11.644H163.484L162.404 13.492L162.104 13.984L164.132 16H162.344ZM158.42 14.992C159.172 14.992 159.836 14.684 160.412 14.068L158.204 11.848C157.26 12.224 156.788 12.792 156.788 13.552C156.788 13.96 156.94 14.304 157.244 14.584C157.548 14.856 157.94 14.992 158.42 14.992ZM176.15 9.28C176.67 9.28 177.134 9.388 177.542 9.604C177.958 9.82 178.282 10.14 178.514 10.564C178.754 10.988 178.874 11.5 178.874 12.1V16H177.518V12.304C177.518 11.712 177.37 11.26 177.074 10.948C176.778 10.628 176.374 10.468 175.862 10.468C175.35 10.468 174.942 10.628 174.638 10.948C174.342 11.26 174.194 11.712 174.194 12.304V16H172.838V12.304C172.838 11.712 172.69 11.26 172.394 10.948C172.098 10.628 171.694 10.468 171.182 10.468C170.67 10.468 170.262 10.628 169.958 10.948C169.662 11.26 169.514 11.712 169.514 12.304V16H168.146V9.388H169.514V10.144C169.738 9.872 170.022 9.66 170.366 9.508C170.71 9.356 171.078 9.28 171.47 9.28C171.998 9.28 172.47 9.392 172.886 9.616C173.302 9.84 173.622 10.164 173.846 10.588C174.046 10.188 174.358 9.872 174.782 9.64C175.206 9.4 175.662 9.28 176.15 9.28ZM183.483 16.108C182.859 16.108 182.295 15.968 181.791 15.688C181.287 15.4 180.891 15 180.603 14.488C180.315 13.968 180.171 13.368 180.171 12.688C180.171 12.016 180.319 11.42 180.615 10.9C180.911 10.38 181.315 9.98 181.827 9.7C182.339 9.42 182.911 9.28 183.543 9.28C184.175 9.28 184.747 9.42 185.259 9.7C185.771 9.98 186.175 10.38 186.471 10.9C186.767 11.42 186.915 12.016 186.915 12.688C186.915 13.36 186.763 13.956 186.459 14.476C186.155 14.996 185.739 15.4 185.211 15.688C184.691 15.968 184.115 16.108 183.483 16.108ZM183.483 14.92C183.835 14.92 184.163 14.836 184.467 14.668C184.779 14.5 185.031 14.248 185.223 13.912C185.415 13.576 185.511 13.168 185.511 12.688C185.511 12.208 185.419 11.804 185.235 11.476C185.051 11.14 184.807 10.888 184.503 10.72C184.199 10.552 183.871 10.468 183.519 10.468C183.167 10.468 182.839 10.552 182.535 10.72C182.239 10.888 182.003 11.14 181.827 11.476C181.651 11.804 181.563 12.208 181.563 12.688C181.563 13.4 181.743 13.952 182.103 14.344C182.471 14.728 182.931 14.92 183.483 14.92ZM189.635 10.348C189.835 10.012 190.099 9.752 190.427 9.568C190.763 9.376 191.159 9.28 191.615 9.28V10.696H191.267C190.731 10.696 190.323 10.832 190.043 11.104C189.771 11.376 189.635 11.848 189.635 12.52V16H188.267V9.388H189.635V10.348ZM198.933 12.532C198.933 12.78 198.917 13.004 198.885 13.204H193.833C193.873 13.732 194.069 14.156 194.421 14.476C194.773 14.796 195.205 14.956 195.717 14.956C196.453 14.956 196.973 14.648 197.277 14.032H198.753C198.553 14.64 198.189 15.14 197.661 15.532C197.141 15.916 196.493 16.108 195.717 16.108C195.085 16.108 194.517 15.968 194.013 15.688C193.517 15.4 193.125 15 192.837 14.488C192.557 13.968 192.417 13.368 192.417 12.688C192.417 12.008 192.553 11.412 192.825 10.9C193.105 10.38 193.493 9.98 193.989 9.7C194.493 9.42 195.069 9.28 195.717 9.28C196.341 9.28 196.897 9.416 197.385 9.688C197.873 9.96 198.253 10.344 198.525 10.84C198.797 11.328 198.933 11.892 198.933 12.532ZM197.505 12.1C197.497 11.596 197.317 11.192 196.965 10.888C196.613 10.584 196.177 10.432 195.657 10.432C195.185 10.432 194.781 10.584 194.445 10.888C194.109 11.184 193.909 11.588 193.845 12.1H197.505Z" fill="#4B4E68"/>
<rect x="100" width="40" height="24" rx="4.54936" fill="#006FCF"/>
<path d="M109.971 10.2681L110.745 12.1441H109.203L109.971 10.2681ZM126.046 10.3461H123.069V11.1731H125.998V12.4121H123.075V13.3341H126.052V14.0731L128.129 11.8281L126.052 9.48812L126.046 10.3461ZM111.983 8.00612H115.978L116.865 9.94112L117.687 8.00012H128.057L129.135 9.19012L130.25 8.00012H135.013L131.494 11.8521L134.977 15.6801H130.143L129.065 14.4901L127.94 15.6801H111.03L110.536 14.4901H109.406L108.911 15.6801H105L108.286 8.00012H111.716L111.983 8.00612ZM120.646 9.08412H118.407L116.907 12.6201L115.282 9.08412H113.06V13.8941L111 9.08412H109.007L106.625 14.5961H108.18L108.674 13.4061H111.27L111.764 14.5961H114.484V10.6611L116.235 14.6021H117.425L119.165 10.6731V14.6031H120.623L120.647 9.08312L120.646 9.08412ZM129.986 11.8521L132.517 9.08412H130.695L129.094 10.8101L127.546 9.08412H121.652V14.6021H127.462L129.076 12.8641L130.624 14.6021H132.499L129.987 11.8521H129.986Z" fill="white"/>
</svg>
