<svg width="20" height="16" viewBox="0 0 20 16" fill="none" xmlns="http://www.w3.org/2000/svg">
<path d="M15.8333 0.5H4.16667C3.062 0.501323 2.00296 0.940735 1.22185 1.72185C0.440735 2.50296 0.00132321 3.562 0 4.66667L0 11.3333C0.00132321 12.438 0.440735 13.497 1.22185 14.2782C2.00296 15.0593 3.062 15.4987 4.16667 15.5H15.8333C16.938 15.4987 17.997 15.0593 18.7782 14.2782C19.5593 13.497 19.9987 12.438 20 11.3333V4.66667C19.9987 3.562 19.5593 2.50296 18.7782 1.72185C17.997 0.940735 16.938 0.501323 15.8333 0.5ZM4.16667 2.16667H15.8333C16.4964 2.16667 17.1323 2.43006 17.6011 2.8989C18.0699 3.36774 18.3333 4.00363 18.3333 4.66667H1.66667C1.66667 4.00363 1.93006 3.36774 2.3989 2.8989C2.86774 2.43006 3.50363 2.16667 4.16667 2.16667ZM15.8333 13.8333H4.16667C3.50363 13.8333 2.86774 13.5699 2.3989 13.1011C1.93006 12.6323 1.66667 11.9964 1.66667 11.3333V6.33333H18.3333V11.3333C18.3333 11.9964 18.0699 12.6323 17.6011 13.1011C17.1323 13.5699 16.4964 13.8333 15.8333 13.8333Z" fill="#979AB8"/>
</svg>
