<svg width="18" height="20" viewBox="0 0 18 20" fill="none" xmlns="http://www.w3.org/2000/svg">
<path d="M14.8337 7.02V5.83333C14.8337 4.28624 14.2191 2.80251 13.1251 1.70854C12.0312 0.614582 10.5474 0 9.00033 0C7.45323 0 5.9695 0.614582 4.87554 1.70854C3.78157 2.80251 3.16699 4.28624 3.16699 5.83333V7.02C2.42479 7.34392 1.79307 7.8771 1.34907 8.55434C0.90508 9.23158 0.668058 10.0235 0.666992 10.8333V15.8333C0.668315 16.938 1.10773 17.997 1.88884 18.7782C2.66996 19.5593 3.729 19.9987 4.83366 20H13.167C14.2717 19.9987 15.3307 19.5593 16.1118 18.7782C16.8929 17.997 17.3323 16.938 17.3337 15.8333V10.8333C17.3326 10.0235 17.0956 9.23158 16.6516 8.55434C16.2076 7.8771 15.5759 7.34392 14.8337 7.02ZM4.83366 5.83333C4.83366 4.72826 5.27265 3.66846 6.05405 2.88705C6.83545 2.10565 7.89526 1.66667 9.00033 1.66667C10.1054 1.66667 11.1652 2.10565 11.9466 2.88705C12.728 3.66846 13.167 4.72826 13.167 5.83333V6.66667H4.83366V5.83333ZM15.667 15.8333C15.667 16.4964 15.4036 17.1323 14.9348 17.6011C14.4659 18.0699 13.83 18.3333 13.167 18.3333H4.83366C4.17062 18.3333 3.53473 18.0699 3.06589 17.6011C2.59705 17.1323 2.33366 16.4964 2.33366 15.8333V10.8333C2.33366 10.1703 2.59705 9.53441 3.06589 9.06557C3.53473 8.59672 4.17062 8.33333 4.83366 8.33333H13.167C13.83 8.33333 14.4659 8.59672 14.9348 9.06557C15.4036 9.53441 15.667 10.1703 15.667 10.8333V15.8333Z" fill="#979AB8"/>
</svg>
