<svg width="11" height="20" viewBox="0 0 11 20" fill="none" xmlns="http://www.w3.org/2000/svg">
<path d="M1.83328 20.0005C1.72361 20.0011 1.61489 19.9801 1.51336 19.9386C1.41183 19.8971 1.31948 19.836 1.24162 19.7588C1.16351 19.6813 1.10151 19.5892 1.05921 19.4876C1.0169 19.3861 0.995117 19.2771 0.995117 19.1671C0.995117 19.0571 1.0169 18.9482 1.05921 18.8466C1.10151 18.7451 1.16351 18.6529 1.24162 18.5755L8.04995 11.7671C8.51812 11.2984 8.78108 10.663 8.78108 10.0005C8.78108 9.33797 8.51812 8.70255 8.04995 8.2338L1.24162 1.42548C1.0847 1.26856 0.996539 1.05573 0.996539 0.833812C0.996539 0.611895 1.0847 0.399066 1.24162 0.242146C1.39854 0.0852268 1.61136 -0.00292969 1.83328 -0.00292969C2.0552 -0.00292969 2.26803 0.0852268 2.42495 0.242146L9.23328 7.05047C9.62131 7.43752 9.92917 7.89731 10.1392 8.40352C10.3493 8.90973 10.4574 9.45241 10.4574 10.0005C10.4574 10.5485 10.3493 11.0912 10.1392 11.5974C9.92917 12.1036 9.62131 12.5634 9.23328 12.9505L2.42495 19.7588C2.34708 19.836 2.25474 19.8971 2.1532 19.9386C2.05167 19.9801 1.94295 20.0011 1.83328 20.0005Z" fill="#4B4E68"/>
</svg>
