<svg width="20" height="20" viewBox="0 0 20 20" fill="none" xmlns="http://www.w3.org/2000/svg">
<g clip-path="url(#clip0_0_3662)">
<path d="M14.1667 20.0005C14.2764 20.0011 14.3851 19.9801 14.4866 19.9386C14.5882 19.8971 14.6805 19.836 14.7584 19.7588C14.8365 19.6813 14.8985 19.5892 14.9408 19.4876C14.9831 19.3861 15.0049 19.2771 15.0049 19.1671C15.0049 19.0571 14.9831 18.9482 14.9408 18.8466C14.8985 18.7451 14.8365 18.6529 14.7584 18.5755L7.95005 11.7671C7.48188 11.2984 7.21892 10.663 7.21892 10.0005C7.21892 9.33797 7.48188 8.70255 7.95005 8.2338L14.7584 1.42548C14.9153 1.26856 15.0035 1.05573 15.0035 0.833812C15.0035 0.611895 14.9153 0.399066 14.7584 0.242146C14.6015 0.0852268 14.3886 -0.00292969 14.1667 -0.00292969C13.9448 -0.00292969 13.732 0.0852268 13.5751 0.242146L6.76672 7.05047C6.37869 7.43752 6.07083 7.89731 5.86078 8.40352C5.65073 8.90973 5.5426 9.45241 5.5426 10.0005C5.5426 10.5485 5.65073 11.0912 5.86078 11.5974C6.07083 12.1036 6.37869 12.5634 6.76672 12.9505L13.5751 19.7588C13.6529 19.836 13.7453 19.8971 13.8468 19.9386C13.9483 19.9801 14.057 20.0011 14.1667 20.0005Z" fill="white"/>
</g>
<defs>
<clipPath id="clip0_0_3662">
<rect width="20" height="20" fill="white" transform="matrix(-1 0 0 1 20 0)"/>
</clipPath>
</defs>
</svg>
