<svg width="20" height="20" viewBox="0 0 20 20" fill="none" xmlns="http://www.w3.org/2000/svg">
<path d="M18.1667 4.64919L12.3333 0.71252C11.6452 0.244517 10.8322 -0.0057373 10 -0.0057373C9.16779 -0.0057373 8.35481 0.244517 7.66667 0.71252L1.83333 4.64919C1.26846 5.031 0.805914 5.5456 0.486271 6.14783C0.166627 6.75007 -0.000345349 7.42155 5.36283e-07 8.10335V15.8334C0.00132375 16.938 0.440735 17.9971 1.22185 18.7782C2.00297 19.5593 3.062 19.9987 4.16667 20H15.8333C16.938 19.9987 17.997 19.5593 18.7782 18.7782C19.5593 17.9971 19.9987 16.938 20 15.8334V8.10335C20.0003 7.42155 19.8334 6.75007 19.5137 6.14783C19.1941 5.5456 18.7315 5.031 18.1667 4.64919ZM18.3333 15.8334C18.3333 16.4964 18.0699 17.1323 17.6011 17.6011C17.1323 18.07 16.4964 18.3334 15.8333 18.3334H4.16667C3.50363 18.3334 2.86774 18.07 2.3989 17.6011C1.93006 17.1323 1.66667 16.4964 1.66667 15.8334V8.10335C1.66664 7.69412 1.76708 7.29114 1.95917 6.92978C2.15125 6.56843 2.4291 6.25975 2.76833 6.03085L8.60167 2.09419C9.01416 1.81395 9.50133 1.66412 10 1.66412C10.4987 1.66412 10.9858 1.81395 11.3983 2.09419L17.2317 6.03085C17.5709 6.25975 17.8488 6.56843 18.0408 6.92978C18.2329 7.29114 18.3334 7.69412 18.3333 8.10335V15.8334ZM10 5.83835C9.0102 5.83823 8.04264 6.13189 7.21987 6.68212C6.3971 7.23235 5.75616 8.0144 5.37822 8.92921C5.00029 9.84401 4.90237 10.8504 5.09688 11.8209C5.29139 12.7914 5.76956 13.6823 6.47083 14.3809L7.99083 15.8675C8.52944 16.3891 9.24981 16.6808 9.99959 16.6808C10.7494 16.6808 11.4697 16.3891 12.0083 15.8675L13.5358 14.3742C14.2352 13.6749 14.7115 12.784 14.9045 11.814C15.0975 10.844 14.9985 9.83856 14.62 8.92485C14.2415 8.01115 13.6005 7.23021 12.7782 6.68081C11.9558 6.13142 10.989 5.83823 10 5.83835ZM12.3633 13.1892L10.8425 14.6767C10.6165 14.8956 10.3142 15.0179 9.99959 15.0179C9.68496 15.0179 9.38268 14.8956 9.15667 14.6767L7.6425 13.1959C7.17663 12.73 6.85928 12.1364 6.73053 11.4903C6.60177 10.8441 6.6674 10.1743 6.91912 9.56542C7.17083 8.95654 7.59734 8.4359 8.14478 8.06928C8.69222 7.70266 9.33603 7.5065 9.99489 7.50557C10.6537 7.50464 11.2981 7.69898 11.8466 8.06406C12.3951 8.42913 12.823 8.94855 13.0765 9.55672C13.3299 10.1649 13.3974 10.8345 13.2705 11.481C13.1436 12.1276 12.8279 12.722 12.3633 13.1892ZM10.8333 10.8334C10.8333 10.9982 10.7845 11.1593 10.6929 11.2963C10.6013 11.4334 10.4712 11.5402 10.3189 11.6033C10.1666 11.6663 9.99908 11.6828 9.83743 11.6507C9.67578 11.6185 9.52729 11.5392 9.41075 11.4226C9.2942 11.3061 9.21483 11.1576 9.18268 10.9959C9.15053 10.8343 9.16703 10.6667 9.2301 10.5145C9.29317 10.3622 9.39998 10.232 9.53703 10.1405C9.67407 10.0489 9.83518 10 10 10C10.221 10 10.433 10.0878 10.5893 10.2441C10.7455 10.4004 10.8333 10.6123 10.8333 10.8334Z" fill="#979AB8"/>
</svg>
