<svg width="20" height="20" viewBox="0 0 20 20" fill="none" xmlns="http://www.w3.org/2000/svg">
<path d="M9.99973 13.3333C10.3878 13.3341 10.7706 13.2445 11.1181 13.0717L12.7847 12.2383C13.6342 11.8165 14.1701 10.9485 14.1664 10V7.52752C14.1693 6.5799 13.6336 5.71295 12.7847 5.2917L11.1181 4.45838C10.4139 4.10838 9.58641 4.10838 8.88223 4.45838L7.21555 5.2917C6.36641 5.71271 5.83028 6.57975 5.83305 7.52752V10C5.83 10.9479 6.36575 11.8151 7.21473 12.2367L8.88141 13.07C9.22868 13.2434 9.61157 13.3336 9.99973 13.3333ZM7.49973 10V7.52752C7.50106 7.44252 7.5154 7.35818 7.54223 7.27752L9.35891 8.18584C9.76235 8.38748 10.2372 8.38748 10.6406 8.18584L12.4573 7.27752C12.4841 7.35818 12.4984 7.44252 12.4998 7.52752V10C12.5011 10.3162 12.3223 10.6056 12.0389 10.7458L10.3723 11.5792C10.1373 11.6954 9.86145 11.6954 9.62645 11.5792L7.95977 10.7458C7.67668 10.6053 7.49825 10.316 7.49973 10ZM15.8331 18.3333H13.5756L16.4814 15.6483C20.0613 12.0686 20.0613 6.26459 16.4816 2.68471C12.9018 -0.895176 7.09786 -0.895215 3.51797 2.68451C-0.0619091 6.26424 -0.0619875 12.0683 3.51778 15.6481C3.52563 15.656 6.42391 18.3333 6.42391 18.3333H4.16641C3.70618 18.3333 3.33309 18.7064 3.33309 19.1667C3.33309 19.6269 3.70618 20 4.16641 20H15.8331C16.2933 20 16.6664 19.6269 16.6664 19.1667C16.6664 18.7065 16.2933 18.3333 15.8331 18.3333ZM4.69641 3.86334C7.61891 0.927715 12.3679 0.91709 15.3035 3.83959C18.2391 6.76209 18.2497 11.511 15.3272 14.4467L12.0064 17.5142C10.873 18.5825 9.10149 18.5763 7.97559 17.5L4.69641 14.47C1.772 11.5392 1.77204 6.7942 4.69641 3.86334Z" fill="#979AB8"/>
</svg>
