<svg width="16" height="12" viewBox="0 0 16 12" fill="none" xmlns="http://www.w3.org/2000/svg">
<path d="M14.8794 0.954006L5.66675 10.166C5.60481 10.2282 5.5312 10.2775 5.45014 10.3112C5.36909 10.3449 5.28218 10.3622 5.19441 10.3622C5.10665 10.3622 5.01974 10.3449 4.93868 10.3112C4.85763 10.2775 4.78402 10.2282 4.72208 10.166L1.15941 6.60001C1.09747 6.53782 1.02387 6.48848 0.94281 6.45481C0.861755 6.42114 0.77485 6.40381 0.687081 6.40381C0.599312 6.40381 0.512406 6.42114 0.431351 6.45481C0.350296 6.48848 0.276687 6.53782 0.214747 6.60001C0.152563 6.66194 0.103221 6.73555 0.0695536 6.81661C0.0358858 6.89767 0.0185547 6.98457 0.0185547 7.07234C0.0185547 7.16011 0.0358858 7.24701 0.0695536 7.32807C0.103221 7.40912 0.152563 7.48273 0.214747 7.54467L3.77875 11.108C4.15471 11.4833 4.66421 11.694 5.19541 11.694C5.72662 11.694 6.23612 11.4833 6.61208 11.108L15.8241 1.89801C15.8862 1.83608 15.9354 1.76251 15.969 1.68152C16.0026 1.60052 16.0199 1.5137 16.0199 1.42601C16.0199 1.33832 16.0026 1.25149 15.969 1.17049C15.9354 1.0895 15.8862 1.01593 15.8241 0.954006C15.7621 0.891821 15.6885 0.842479 15.6075 0.808812C15.5264 0.775144 15.4395 0.757813 15.3517 0.757812C15.264 0.757812 15.1771 0.775144 15.096 0.808812C15.015 0.842479 14.9414 0.891821 14.8794 0.954006Z" fill="#374957"/>
</svg>
