<svg width="20" height="20" viewBox="0 0 20 20" fill="none" xmlns="http://www.w3.org/2000/svg">
<path d="M5.83333 11.6667C5.83333 11.8877 5.74554 12.0996 5.58926 12.2559C5.43297 12.4122 5.22101 12.5 5 12.5H4.16667C3.94565 12.5 3.73369 12.4122 3.57741 12.2559C3.42113 12.0996 3.33333 11.8877 3.33333 11.6667C3.33333 11.4457 3.42113 11.2337 3.57741 11.0774C3.73369 10.9211 3.94565 10.8333 4.16667 10.8333H5C5.22101 10.8333 5.43297 10.9211 5.58926 11.0774C5.74554 11.2337 5.83333 11.4457 5.83333 11.6667ZM9.16667 10.8333H8.33333C8.11232 10.8333 7.90036 10.9211 7.74408 11.0774C7.5878 11.2337 7.5 11.4457 7.5 11.6667C7.5 11.8877 7.5878 12.0996 7.74408 12.2559C7.90036 12.4122 8.11232 12.5 8.33333 12.5H9.16667C9.38768 12.5 9.59964 12.4122 9.75592 12.2559C9.9122 12.0996 10 11.8877 10 11.6667C10 11.4457 9.9122 11.2337 9.75592 11.0774C9.59964 10.9211 9.38768 10.8333 9.16667 10.8333ZM5 14.1667H4.16667C3.94565 14.1667 3.73369 14.2545 3.57741 14.4107C3.42113 14.567 3.33333 14.779 3.33333 15C3.33333 15.221 3.42113 15.433 3.57741 15.5893C3.73369 15.7455 3.94565 15.8333 4.16667 15.8333H5C5.22101 15.8333 5.43297 15.7455 5.58926 15.5893C5.74554 15.433 5.83333 15.221 5.83333 15C5.83333 14.779 5.74554 14.567 5.58926 14.4107C5.43297 14.2545 5.22101 14.1667 5 14.1667ZM9.16667 14.1667H8.33333C8.11232 14.1667 7.90036 14.2545 7.74408 14.4107C7.5878 14.567 7.5 14.779 7.5 15C7.5 15.221 7.5878 15.433 7.74408 15.5893C7.90036 15.7455 8.11232 15.8333 8.33333 15.8333H9.16667C9.38768 15.8333 9.59964 15.7455 9.75592 15.5893C9.9122 15.433 10 15.221 10 15C10 14.779 9.9122 14.567 9.75592 14.4107C9.59964 14.2545 9.38768 14.1667 9.16667 14.1667ZM5 4.16667H4.16667C3.94565 4.16667 3.73369 4.25446 3.57741 4.41074C3.42113 4.56702 3.33333 4.77899 3.33333 5C3.33333 5.22101 3.42113 5.43297 3.57741 5.58926C3.73369 5.74554 3.94565 5.83333 4.16667 5.83333H5C5.22101 5.83333 5.43297 5.74554 5.58926 5.58926C5.74554 5.43297 5.83333 5.22101 5.83333 5C5.83333 4.77899 5.74554 4.56702 5.58926 4.41074C5.43297 4.25446 5.22101 4.16667 5 4.16667ZM9.16667 4.16667H8.33333C8.11232 4.16667 7.90036 4.25446 7.74408 4.41074C7.5878 4.56702 7.5 4.77899 7.5 5C7.5 5.22101 7.5878 5.43297 7.74408 5.58926C7.90036 5.74554 8.11232 5.83333 8.33333 5.83333H9.16667C9.38768 5.83333 9.59964 5.74554 9.75592 5.58926C9.9122 5.43297 10 5.22101 10 5C10 4.77899 9.9122 4.56702 9.75592 4.41074C9.59964 4.25446 9.38768 4.16667 9.16667 4.16667ZM5 7.5H4.16667C3.94565 7.5 3.73369 7.5878 3.57741 7.74408C3.42113 7.90036 3.33333 8.11232 3.33333 8.33333C3.33333 8.55435 3.42113 8.76631 3.57741 8.92259C3.73369 9.07887 3.94565 9.16667 4.16667 9.16667H5C5.22101 9.16667 5.43297 9.07887 5.58926 8.92259C5.74554 8.76631 5.83333 8.55435 5.83333 8.33333C5.83333 8.11232 5.74554 7.90036 5.58926 7.74408C5.43297 7.5878 5.22101 7.5 5 7.5ZM9.16667 7.5H8.33333C8.11232 7.5 7.90036 7.5878 7.74408 7.74408C7.5878 7.90036 7.5 8.11232 7.5 8.33333C7.5 8.55435 7.5878 8.76631 7.74408 8.92259C7.90036 9.07887 8.11232 9.16667 8.33333 9.16667H9.16667C9.38768 9.16667 9.59964 9.07887 9.75592 8.92259C9.9122 8.76631 10 8.55435 10 8.33333C10 8.11232 9.9122 7.90036 9.75592 7.74408C9.59964 7.5878 9.38768 7.5 9.16667 7.5ZM20 8.33333V15.8333C19.9987 16.938 19.5593 17.997 18.7782 18.7782C17.997 19.5593 16.938 19.9987 15.8333 20H4.16667C3.062 19.9987 2.00296 19.5593 1.22185 18.7782C0.440735 17.997 0.00132321 16.938 0 15.8333L0 4.16667C0.00132321 3.062 0.440735 2.00296 1.22185 1.22185C2.00296 0.440735 3.062 0.00132321 4.16667 0L9.16667 0C10.2713 0.00132321 11.3304 0.440735 12.1115 1.22185C12.8926 2.00296 13.332 3.062 13.3333 4.16667H15.8333C16.938 4.16799 17.997 4.6074 18.7782 5.38852C19.5593 6.16963 19.9987 7.22867 20 8.33333ZM4.16667 18.3333H11.6667V4.16667C11.6667 3.50363 11.4033 2.86774 10.9344 2.3989C10.4656 1.93006 9.82971 1.66667 9.16667 1.66667H4.16667C3.50363 1.66667 2.86774 1.93006 2.3989 2.3989C1.93006 2.86774 1.66667 3.50363 1.66667 4.16667V15.8333C1.66667 16.4964 1.93006 17.1323 2.3989 17.6011C2.86774 18.0699 3.50363 18.3333 4.16667 18.3333ZM18.3333 8.33333C18.3333 7.67029 18.0699 7.03441 17.6011 6.56557C17.1323 6.09673 16.4964 5.83333 15.8333 5.83333H13.3333V18.3333H15.8333C16.4964 18.3333 17.1323 18.0699 17.6011 17.6011C18.0699 17.1323 18.3333 16.4964 18.3333 15.8333V8.33333ZM15.8333 10.8333C15.6685 10.8333 15.5074 10.8822 15.3704 10.9738C15.2333 11.0653 15.1265 11.1955 15.0634 11.3478C15.0004 11.5 14.9839 11.6676 15.016 11.8292C15.0482 11.9909 15.1275 12.1394 15.2441 12.2559C15.3606 12.3725 15.5091 12.4518 15.6708 12.484C15.8324 12.5161 16 12.4996 16.1522 12.4366C16.3045 12.3735 16.4347 12.2667 16.5262 12.1296C16.6178 11.9926 16.6667 11.8315 16.6667 11.6667C16.6667 11.4457 16.5789 11.2337 16.4226 11.0774C16.2663 10.9211 16.0543 10.8333 15.8333 10.8333ZM15.8333 14.1667C15.6685 14.1667 15.5074 14.2155 15.3704 14.3071C15.2333 14.3987 15.1265 14.5288 15.0634 14.6811C15.0004 14.8334 14.9839 15.0009 15.016 15.1626C15.0482 15.3242 15.1275 15.4727 15.2441 15.5893C15.3606 15.7058 15.5091 15.7852 15.6708 15.8173C15.8324 15.8495 16 15.833 16.1522 15.7699C16.3045 15.7068 16.4347 15.6 16.5262 15.463C16.6178 15.3259 16.6667 15.1648 16.6667 15C16.6667 14.779 16.5789 14.567 16.4226 14.4107C16.2663 14.2545 16.0543 14.1667 15.8333 14.1667ZM15.8333 7.5C15.6685 7.5 15.5074 7.54887 15.3704 7.64044C15.2333 7.73201 15.1265 7.86216 15.0634 8.01443C15.0004 8.1667 14.9839 8.33426 15.016 8.49591C15.0482 8.65756 15.1275 8.80604 15.2441 8.92259C15.3606 9.03913 15.5091 9.1185 15.6708 9.15065C15.8324 9.18281 16 9.16631 16.1522 9.10323C16.3045 9.04016 16.4347 8.93335 16.5262 8.79631C16.6178 8.65927 16.6667 8.49815 16.6667 8.33333C16.6667 8.11232 16.5789 7.90036 16.4226 7.74408C16.2663 7.5878 16.0543 7.5 15.8333 7.5Z" fill="#979AB8"/>
</svg>
