<svg width="20" height="10" viewBox="0 0 20 10" fill="none" xmlns="http://www.w3.org/2000/svg">
<path d="M1.25838 0.0658142C1.42253 0.0655941 1.5851 0.0978816 1.73671 0.160814C1.88832 0.223746 2.02597 0.316078 2.14171 0.43248L8.53588 6.82581C8.72934 7.01932 8.95903 7.17282 9.21183 7.27756C9.46463 7.38229 9.73558 7.43619 10.0092 7.43619C10.2828 7.43619 10.5538 7.38229 10.8066 7.27756C11.0594 7.17282 11.2891 7.01932 11.4825 6.82581L17.8667 0.440814C17.982 0.321426 18.12 0.226198 18.2725 0.160687C18.425 0.095176 18.589 0.0606936 18.755 0.0592513C18.9209 0.057809 19.0855 0.0894358 19.2392 0.152287C19.3928 0.215138 19.5323 0.307954 19.6497 0.42532C19.7671 0.542686 19.8599 0.68225 19.9227 0.835871C19.9856 0.989491 20.0172 1.15409 20.0158 1.32006C20.0143 1.48604 19.9799 1.65006 19.9143 1.80257C19.8488 1.95507 19.7536 2.093 19.6342 2.20831L13.25 8.5933C12.39 9.45178 11.2244 9.93393 10.0092 9.93393C8.79401 9.93393 7.62846 9.45178 6.76838 8.5933L0.374213 2.19998C0.199283 2.02516 0.0801409 1.80238 0.0318625 1.55983C-0.016416 1.31728 0.00833916 1.06586 0.102995 0.837382C0.197652 0.608905 0.357955 0.41364 0.56362 0.276296C0.769286 0.138952 1.01107 0.0657021 1.25838 0.0658142Z" fill="#D6D8EA"/>
</svg>
