<svg width="315" height="24" viewBox="0 0 315 24" fill="none" xmlns="http://www.w3.org/2000/svg">
<rect x="0.5" y="0.5" width="39" height="23" rx="4.04936" fill="white" stroke="#D6D8EA"/>
<path d="M16 19C19.866 19 23 15.866 23 12C23 8.13401 19.866 5 16 5C12.134 5 9 8.13401 9 12C9 15.866 12.134 19 16 19Z" fill="#EB001B"/>
<path d="M24 19C27.866 19 31 15.866 31 12C31 8.13401 27.866 5 24 5C20.134 5 17 8.13401 17 12C17 15.866 20.134 19 24 19Z" fill="#F79E1B"/>
<path d="M23 11.9998C23 9.5998 21.8 7.4998 20 6.2998C18.2 7.5998 17 9.6998 17 11.9998C17 14.2998 18.2 16.4998 20 17.6998C21.8 16.4998 23 14.3998 23 11.9998Z" fill="#FF5F00"/>
<rect x="55.5" y="0.5" width="39" height="23" rx="4.04936" fill="white" stroke="#D6D8EA"/>
<path d="M85.3 10.1H85C84.6 11.1 84.3 11.6 84 13.1H85.9C85.6 11.6 85.6 10.9 85.3 10.1ZM88.2 16H86.5C86.4 16 86.4 16 86.3 15.9L86.1 15L86 14.8H83.6C83.5 14.8 83.4 14.8 83.4 15L83.1 15.9C83.1 16 83 16 83 16H80.9L81.1 15.5L84 8.7C84 8.2 84.3 8 84.8 8H86.3C86.4 8 86.5 8 86.5 8.2L87.9 14.7C88 15.1 88.1 15.4 88.1 15.8C88.2 15.9 88.2 15.9 88.2 16ZM74.8 15.7L75.2 13.9C75.3 13.9 75.4 14 75.4 14C76.1 14.3 76.8 14.5 77.5 14.4C77.7 14.4 78 14.3 78.2 14.2C78.7 14 78.7 13.5 78.3 13.1C78.1 12.9 77.8 12.8 77.5 12.6C77.1 12.4 76.7 12.2 76.4 11.9C75.2 10.9 75.6 9.5 76.3 8.8C76.9 8.4 77.2 8 78 8C79.2 8 80.5 8 81.1 8.2H81.2C81.1 8.8 81 9.3 80.8 9.9C80.3 9.7 79.8 9.5 79.3 9.5C79 9.5 78.7 9.5 78.4 9.6C78.2 9.6 78.1 9.7 78 9.8C77.8 10 77.8 10.3 78 10.5L78.5 10.9C78.9 11.1 79.3 11.3 79.6 11.5C80.1 11.8 80.6 12.3 80.7 12.9C80.9 13.8 80.6 14.6 79.8 15.2C79.3 15.6 79.1 15.8 78.4 15.8C77 15.8 75.9 15.9 75 15.6C74.9 15.8 74.9 15.8 74.8 15.7ZM71.3 16C71.4 15.3 71.4 15.3 71.5 15C72 12.8 72.5 10.5 72.9 8.3C73 8.1 73 8 73.2 8H75C74.8 9.2 74.6 10.1 74.3 11.2C74 12.7 73.7 14.2 73.3 15.7C73.3 15.9 73.2 15.9 73 15.9L71.3 16ZM62 8.2C62 8.1 62.2 8 62.3 8H65.7C66.2 8 66.6 8.3 66.7 8.8L67.6 13.2C67.6 13.3 67.6 13.3 67.7 13.4C67.7 13.3 67.8 13.3 67.8 13.3L69.9 8.2C69.8 8.1 69.9 8 70 8H72.1C72.1 8.1 72.1 8.1 72 8.2L68.9 15.5C68.8 15.7 68.8 15.8 68.7 15.9C68.6 16 68.4 15.9 68.2 15.9H66.7C66.6 15.9 66.5 15.9 66.5 15.7L64.9 9.5C64.7 9.3 64.4 9 64 8.9C63.4 8.6 62.3 8.4 62.1 8.4L62 8.2Z" fill="#142688"/>
<rect x="110.5" y="0.5" width="39" height="23" rx="4.04936" fill="white" stroke="#D6D8EA"/>
<path fill-rule="evenodd" clip-rule="evenodd" d="M128.686 8.33301H133.138C135.528 8.33301 136.428 9.41892 136.289 11.0163C136.06 13.6501 134.285 15.1073 131.931 15.1073H130.743C130.42 15.1073 130.203 15.2991 130.115 15.8189L129.605 18.8384C129.572 19.0343 129.457 19.1498 129.284 19.1632H126.493C126.23 19.1632 126.137 18.9827 126.206 18.5919L127.911 8.90535C127.979 8.5176 128.214 8.33301 128.686 8.33301Z" fill="#009EE3"/>
<path fill-rule="evenodd" clip-rule="evenodd" d="M125.9 5H130.356C131.611 5 133.101 5.03609 134.096 5.825C134.762 6.35197 135.111 7.19038 135.031 8.09066C134.757 11.1442 132.722 12.8551 129.991 12.8551H127.794C127.419 12.8551 127.172 13.0778 127.066 13.6801L126.452 17.1812C126.412 17.408 126.303 17.5421 126.103 17.5586H123.357C123.053 17.5586 122.945 17.3493 123.024 16.8965L125.001 5.66413C125.08 5.2145 125.355 5 125.9 5Z" fill="#113984"/>
<path fill-rule="evenodd" clip-rule="evenodd" d="M127.131 13.3274L127.909 8.90638C127.977 8.51863 128.213 8.33301 128.685 8.33301H133.137C133.874 8.33301 134.47 8.43613 134.937 8.62691C134.49 11.3453 132.53 12.855 129.965 12.855H127.766C127.477 12.855 127.261 12.9881 127.131 13.3274Z" fill="#172C70"/>
<rect x="165" width="40" height="24" rx="4.54936" fill="#006FCF"/>
<path d="M174.971 10.268L175.745 12.144H174.203L174.971 10.268ZM191.046 10.346H188.069V11.173H190.998V12.412H188.075V13.334H191.052V14.073L193.129 11.828L191.052 9.488L191.046 10.346ZM176.983 8.006H180.978L181.865 9.941L182.687 8H193.057L194.135 9.19L195.25 8H200.013L196.494 11.852L199.977 15.68H195.143L194.065 14.49L192.94 15.68H176.03L175.536 14.49H174.406L173.911 15.68H170L173.286 8H176.716L176.983 8.006ZM185.646 9.084H183.407L181.907 12.62L180.282 9.084H178.06V13.894L176 9.084H174.007L171.625 14.596H173.18L173.674 13.406H176.27L176.764 14.596H179.484V10.661L181.235 14.602H182.425L184.165 10.673V14.603H185.623L185.647 9.083L185.646 9.084ZM194.986 11.852L197.517 9.084H195.695L194.094 10.81L192.546 9.084H186.652V14.602H192.462L194.076 12.864L195.624 14.602H197.499L194.987 11.852H194.986Z" fill="white"/>
<rect x="220.5" y="0.5" width="39" height="23" rx="4.04936" fill="white" stroke="#D6D8EA"/>
<g clip-path="url(#clip0_0_3690)">
<path d="M250 17.5157C250 19.3966 248.606 20.9282 246.895 20.9282H230V7.41251C230 5.5316 231.394 4 233.105 4H250V17.5157Z" fill="white"/>
<path d="M244.499 14.0495H245.783C245.819 14.0495 245.905 14.0361 245.942 14.0361C246.186 13.9824 246.394 13.7405 246.394 13.4046C246.394 13.0822 246.186 12.8404 245.942 12.7732C245.905 12.7598 245.832 12.7598 245.783 12.7598H244.499V14.0495Z" fill="url(#paint0_linear_0_3690)"/>
<path d="M245.636 5.1416C244.413 5.1416 243.411 6.22984 243.411 7.58679V10.126H246.552C246.626 10.126 246.711 10.126 246.773 10.1395C247.482 10.1798 248.007 10.5828 248.007 11.2814C248.007 11.8323 247.653 12.3025 246.993 12.3965V12.4234C247.714 12.4772 248.264 12.9205 248.264 13.6057C248.264 14.3446 247.653 14.8283 246.846 14.8283H243.398V19.7993H246.662C247.885 19.7993 248.887 18.711 248.887 17.3541V5.1416H245.636Z" fill="url(#paint1_linear_0_3690)"/>
<path d="M246.235 11.4427C246.235 11.1203 246.027 10.9053 245.783 10.865C245.758 10.865 245.697 10.8516 245.66 10.8516H244.499V12.0338H245.66C245.697 12.0338 245.77 12.0338 245.783 12.0204C246.027 11.9801 246.235 11.7651 246.235 11.4427Z" fill="url(#paint2_linear_0_3690)"/>
<path d="M233.338 5.1416C232.115 5.1416 231.113 6.22984 231.113 7.58679V13.6191C231.736 13.955 232.384 14.17 233.032 14.17C233.802 14.17 234.218 13.6594 234.218 12.9608V10.1126H236.125V12.9474C236.125 14.0491 235.502 14.9492 233.387 14.9492C232.103 14.9492 231.101 14.6402 231.101 14.6402V19.7858H234.365C235.587 19.7858 236.59 18.6976 236.59 17.3407V5.1416H233.338Z" fill="url(#paint3_linear_0_3690)"/>
<path d="M239.487 5.1416C238.264 5.1416 237.262 6.22984 237.262 7.58679V10.7843C237.824 10.2604 238.802 9.92449 240.379 10.0051C241.223 10.0454 242.127 10.3007 242.127 10.3007V11.3352C241.675 11.0799 241.137 10.8515 240.44 10.7978C239.242 10.7037 238.521 11.3486 238.521 12.4772C238.521 13.6191 239.242 14.264 240.44 14.1565C241.137 14.1028 241.675 13.861 242.127 13.6191V14.6536C242.127 14.6536 241.235 14.9089 240.379 14.9492C238.802 15.0298 237.824 14.6939 237.262 14.17V19.8127H240.526C241.748 19.8127 242.751 18.7245 242.751 17.3675V5.1416H239.487Z" fill="url(#paint4_linear_0_3690)"/>
</g>
<rect x="275.5" y="0.5" width="39" height="23" rx="4.04936" fill="white" stroke="#D6D8EA"/>
<path d="M296.856 19.6496C300.868 19.6691 304.531 16.3844 304.531 12.3884C304.531 8.01897 300.868 4.99875 296.856 5H293.403C289.342 4.99875 286 8.01968 286 12.3884C286 16.3853 289.342 19.6691 293.403 19.6496H296.856Z" fill="#006095"/>
<path d="M294.943 16.2793V8.34475C296.541 8.95656 297.676 10.5007 297.678 12.3118C297.676 14.1232 296.541 15.6664 294.943 16.2793ZM289.161 12.3118C289.164 10.5017 290.297 8.95852 291.894 8.34493V16.2777C290.297 15.6646 289.164 14.1223 289.161 12.3118ZM293.419 5.60547C289.709 5.60672 286.702 8.60797 286.701 12.3118C286.702 16.0152 289.709 19.0159 293.419 19.017C297.131 19.0159 300.138 16.0152 300.138 12.3118C300.138 8.60797 297.131 5.60672 293.419 5.60547Z" fill="white"/>
<defs>
<linearGradient id="paint0_linear_0_3690" x1="243.409" y1="13.4063" x2="248.903" y2="13.4063" gradientUnits="userSpaceOnUse">
<stop stop-color="#007940"/>
<stop offset="0.2285" stop-color="#00873F"/>
<stop offset="0.7433" stop-color="#40A737"/>
<stop offset="1" stop-color="#5CB531"/>
</linearGradient>
<linearGradient id="paint1_linear_0_3690" x1="243.408" y1="12.4646" x2="248.902" y2="12.4646" gradientUnits="userSpaceOnUse">
<stop stop-color="#007940"/>
<stop offset="0.2285" stop-color="#00873F"/>
<stop offset="0.7433" stop-color="#40A737"/>
<stop offset="1" stop-color="#5CB531"/>
</linearGradient>
<linearGradient id="paint2_linear_0_3690" x1="243.409" y1="11.441" x2="248.903" y2="11.441" gradientUnits="userSpaceOnUse">
<stop stop-color="#007940"/>
<stop offset="0.2285" stop-color="#00873F"/>
<stop offset="0.7433" stop-color="#40A737"/>
<stop offset="1" stop-color="#5CB531"/>
</linearGradient>
<linearGradient id="paint3_linear_0_3690" x1="231.11" y1="12.4646" x2="236.689" y2="12.4646" gradientUnits="userSpaceOnUse">
<stop stop-color="#1F286F"/>
<stop offset="0.4751" stop-color="#004E94"/>
<stop offset="0.8261" stop-color="#0066B1"/>
<stop offset="1" stop-color="#006FBC"/>
</linearGradient>
<linearGradient id="paint4_linear_0_3690" x1="237.23" y1="12.4646" x2="242.648" y2="12.4646" gradientUnits="userSpaceOnUse">
<stop stop-color="#6C2C2F"/>
<stop offset="0.1735" stop-color="#882730"/>
<stop offset="0.5731" stop-color="#BE1833"/>
<stop offset="0.8585" stop-color="#DC0436"/>
<stop offset="1" stop-color="#E60039"/>
</linearGradient>
<clipPath id="clip0_0_3690">
<rect width="20" height="17" fill="white" transform="translate(230 4)"/>
</clipPath>
</defs>
</svg>

