<svg width="78" height="24" viewBox="0 0 78 24" fill="none" xmlns="http://www.w3.org/2000/svg">
<rect x="0.56867" y="0.56867" width="76.8627" height="22.8627" rx="3.98069" fill="white" stroke="#D6D8EA" stroke-width="1.13734"/>
<g clip-path="url(#clip0_0_4869)">
<path d="M31.7885 8.05176H28.6232C28.5184 8.05169 28.4171 8.08871 28.3374 8.15615C28.2577 8.22359 28.2049 8.31701 28.1886 8.41958L26.9084 16.4626C26.9026 16.4999 26.9049 16.538 26.9153 16.5744C26.9257 16.6107 26.944 16.6444 26.9688 16.6731C26.9936 16.7017 27.0244 16.7247 27.059 16.7405C27.0937 16.7563 27.1314 16.7644 27.1695 16.7643H28.6806C28.7855 16.7644 28.8869 16.7273 28.9666 16.6598C29.0463 16.5922 29.099 16.4987 29.1152 16.3961L29.4605 14.2267C29.4767 14.1242 29.5293 14.0307 29.6089 13.9632C29.6885 13.8957 29.7898 13.8585 29.8946 13.8585H30.8966C32.9817 13.8585 34.185 12.8587 34.4993 10.8774C34.6409 10.0106 34.5053 9.3295 34.0957 8.85253C33.6458 8.32877 32.8479 8.05176 31.7885 8.05176ZM32.1537 10.9893C31.9806 12.1148 31.1128 12.1148 30.2737 12.1148H29.796L30.1311 10.0129C30.1409 9.95136 30.1726 9.89536 30.2203 9.85492C30.2681 9.81448 30.3289 9.79226 30.3917 9.79226H30.6106C31.1822 9.79226 31.7214 9.79226 32 10.1151C32.1662 10.3078 32.2171 10.5939 32.1537 10.9893ZM41.2501 10.953H39.7344C39.6715 10.9531 39.6108 10.9753 39.563 11.0157C39.5152 11.0562 39.4836 11.1122 39.4738 11.1737L39.4067 11.5938L39.3007 11.4415C38.9726 10.9696 38.2408 10.8118 37.5105 10.8118C35.8355 10.8118 34.4049 12.0689 34.1263 13.8323C33.9814 14.712 34.1874 15.5531 34.6909 16.1397C35.1528 16.679 35.8137 16.9038 36.6001 16.9038C37.9497 16.9038 38.6981 16.0438 38.6981 16.0438L38.6305 16.4612C38.6245 16.4985 38.6267 16.5367 38.637 16.5731C38.6473 16.6094 38.6654 16.6432 38.6902 16.672C38.7149 16.7007 38.7456 16.7238 38.7802 16.7397C38.8148 16.7556 38.8525 16.7638 38.8906 16.7639H40.256C40.3608 16.7639 40.4623 16.7268 40.5419 16.6593C40.6216 16.5918 40.6743 16.4983 40.6906 16.3956L41.5098 11.2548C41.5158 11.2176 41.5136 11.1795 41.5033 11.1432C41.4931 11.1069 41.475 11.0732 41.4503 11.0445C41.4256 11.0158 41.3949 10.9928 41.3603 10.977C41.3258 10.9612 41.2882 10.953 41.2501 10.953ZM39.1373 13.8764C38.9911 14.7345 38.3038 15.3105 37.4272 15.3105C36.987 15.3105 36.6353 15.1706 36.4094 14.9055C36.1854 14.6423 36.1002 14.2676 36.1715 13.8502C36.308 12.9995 37.0069 12.4046 37.8701 12.4046C38.3005 12.4046 38.6504 12.5463 38.8809 12.8137C39.1119 13.0838 39.2035 13.4608 39.1373 13.8764ZM49.3228 10.953H47.7996C47.7278 10.9532 47.6571 10.9706 47.5936 11.004C47.5301 11.0373 47.4758 11.0855 47.4354 11.1443L45.3346 14.2107L44.4441 11.264C44.4168 11.1741 44.361 11.0954 44.285 11.0394C44.2089 10.9834 44.1167 10.9531 44.022 10.953H42.5252C42.4832 10.9529 42.4418 10.9628 42.4044 10.9817C42.367 11.0007 42.3347 11.0282 42.3102 11.0621C42.2857 11.0959 42.2697 11.135 42.2636 11.1762C42.2574 11.2174 42.2613 11.2595 42.2748 11.2989L43.9526 16.1778L42.3753 18.3842C42.3472 18.4233 42.3306 18.4694 42.3272 18.5172C42.3238 18.5651 42.3338 18.6129 42.356 18.6556C42.3782 18.6982 42.4119 18.7339 42.4532 18.7589C42.4946 18.7838 42.5421 18.797 42.5905 18.797H44.1118C44.1828 18.7971 44.2528 18.7801 44.3158 18.7475C44.3787 18.7149 44.4328 18.6677 44.4733 18.6099L49.5394 11.3635C49.5669 11.3243 49.583 11.2784 49.586 11.2308C49.589 11.1832 49.5788 11.1356 49.5565 11.0933C49.5341 11.051 49.5006 11.0156 49.4594 10.9909C49.4182 10.9662 49.371 10.9531 49.3228 10.953Z" fill="#253B80"/>
<path d="M54.3657 8.05222H51.2C51.0953 8.05226 50.994 8.08933 50.9144 8.15676C50.8348 8.22419 50.7822 8.31755 50.7658 8.42004L49.4857 16.463C49.4797 16.5003 49.482 16.5384 49.4923 16.5747C49.5026 16.611 49.5208 16.6446 49.5455 16.6733C49.5702 16.702 49.6009 16.725 49.6355 16.7408C49.6701 16.7566 49.7077 16.7648 49.7458 16.7648H51.3703C51.4436 16.7647 51.5144 16.7387 51.5701 16.6914C51.6258 16.6442 51.6626 16.5788 51.6739 16.5071L52.0372 14.2272C52.0535 14.1246 52.1061 14.0312 52.1857 13.9636C52.2653 13.8961 52.3666 13.859 52.4714 13.8589H53.4729C55.5585 13.8589 56.7613 12.8591 57.0761 10.8778C57.2182 10.011 57.0816 9.32996 56.672 8.85298C56.2226 8.32923 55.4252 8.05222 54.3657 8.05222ZM54.7309 10.9897C54.5583 12.1152 53.6905 12.1152 52.8509 12.1152H52.3737L52.7093 10.0133C52.7189 9.95182 52.7504 9.89577 52.7981 9.85531C52.8458 9.81484 52.9066 9.79264 52.9694 9.79272H53.1883C53.7594 9.79272 54.2991 9.79272 54.5777 10.1156C54.7439 10.3082 54.7943 10.5944 54.7309 10.9897ZM63.8269 10.9535H62.3121C62.2492 10.9533 62.1884 10.9755 62.1407 11.016C62.093 11.0565 62.0615 11.1126 62.0519 11.1741L61.9848 11.5942L61.8784 11.4419C61.5502 10.97 60.819 10.8122 60.0886 10.8122C58.4136 10.8122 56.9835 12.0694 56.7049 13.8328C56.5605 14.7124 56.7655 15.5536 57.2691 16.1402C57.7319 16.6795 58.3919 16.9042 59.1782 16.9042C60.5279 16.9042 61.2762 16.0443 61.2762 16.0443L61.2087 16.4616C61.2026 16.499 61.2049 16.5373 61.2152 16.5737C61.2256 16.6102 61.2438 16.644 61.2686 16.6728C61.2934 16.7015 61.3243 16.7246 61.359 16.7405C61.3937 16.7563 61.4315 16.7644 61.4697 16.7643H62.8346C62.9394 16.7643 63.0407 16.7271 63.1203 16.6596C63.1999 16.5921 63.2525 16.4986 63.2687 16.3961L64.0884 11.2553C64.0942 11.2179 64.0918 11.1798 64.0813 11.1434C64.0708 11.1071 64.0526 11.0735 64.0277 11.0448C64.0029 11.0161 63.9721 10.9931 63.9374 10.9774C63.9027 10.9616 63.865 10.9535 63.8269 10.9535ZM61.7141 13.8768C61.5688 14.7349 60.8805 15.3109 60.0039 15.3109C59.5647 15.3109 59.212 15.1711 58.9862 14.906C58.7622 14.6427 58.6779 14.268 58.7483 13.8507C58.8857 12.9999 59.5837 12.4051 60.4469 12.4051C60.8773 12.4051 61.2272 12.5468 61.4577 12.8142C61.6896 13.0843 61.7812 13.4613 61.7141 13.8768ZM65.6139 8.27282L64.3147 16.463C64.3088 16.5003 64.311 16.5384 64.3214 16.5747C64.3317 16.611 64.3499 16.6446 64.3746 16.6733C64.3993 16.702 64.43 16.725 64.4646 16.7408C64.4992 16.7566 64.5368 16.7648 64.5748 16.7648H65.8809C66.098 16.7648 66.2822 16.6089 66.3155 16.3965L67.5966 8.35399C67.6026 8.31671 67.6003 8.2786 67.59 8.24227C67.5797 8.20594 67.5615 8.17226 67.5368 8.14354C67.5121 8.11483 67.4814 8.09175 67.4468 8.07591C67.4123 8.06006 67.3746 8.05182 67.3365 8.05176H65.874C65.8112 8.05198 65.7505 8.07434 65.7029 8.11485C65.6552 8.15536 65.6237 8.21136 65.6139 8.27282Z" fill="#179BD7"/>
<path d="M13.7635 18.328L14.0055 16.8044L13.4663 16.7921H10.8916L12.6809 5.54967C12.6862 5.51532 12.7038 5.48401 12.7305 5.46145C12.7572 5.43889 12.7912 5.42658 12.8262 5.42676H17.1676C18.6088 5.42676 19.6034 5.72395 20.1227 6.31054C20.3662 6.58572 20.5212 6.87328 20.5962 7.18973C20.6749 7.52178 20.6763 7.91849 20.5995 8.40235L20.5939 8.43766V8.7477L20.8373 8.88437C21.0232 8.97767 21.1903 9.10389 21.3303 9.25678C21.5385 9.49205 21.6732 9.79108 21.7301 10.1456C21.7889 10.5102 21.7695 10.9441 21.6732 11.4353C21.5621 12.0003 21.3826 12.4924 21.14 12.8951C20.9261 13.2558 20.6383 13.5683 20.2954 13.8123C19.9732 14.0389 19.5905 14.2109 19.1577 14.321C18.7384 14.4292 18.2603 14.4838 17.7359 14.4838H17.3981C17.1565 14.4838 16.9218 14.57 16.7376 14.7246C16.5537 14.8808 16.4316 15.0966 16.3933 15.3336L16.3678 15.4707L15.9401 18.156L15.9207 18.2546C15.9156 18.2858 15.9068 18.3014 15.8939 18.312C15.8813 18.3221 15.8656 18.3278 15.8494 18.328H13.7635Z" fill="#253B80"/>
<path d="M21.0678 8.47363C21.0548 8.55573 21.04 8.63966 21.0234 8.72588C20.4508 11.6386 18.4921 12.6449 15.9906 12.6449H14.7168C14.4109 12.6449 14.1531 12.865 14.1054 13.164L13.4533 17.2624L13.2687 18.4241C13.2613 18.4701 13.2641 18.5173 13.2769 18.5622C13.2897 18.6071 13.3121 18.6487 13.3427 18.6842C13.3733 18.7196 13.4112 18.7481 13.454 18.7677C13.4967 18.7872 13.5432 18.7974 13.5903 18.7974H15.8494C16.1169 18.7974 16.3442 18.6048 16.3863 18.3433L16.4085 18.2296L16.8338 15.5549L16.8611 15.4081C16.9028 15.1458 17.1305 14.9532 17.398 14.9532H17.7359C19.9246 14.9532 21.638 14.0726 22.1388 11.5244C22.348 10.46 22.2397 9.57113 21.6861 8.94602C21.5107 8.75265 21.3012 8.59257 21.0678 8.47363Z" fill="#179BD7"/>
<path d="M20.4689 8.23602C20.2861 8.18362 20.1001 8.14272 19.9121 8.11357C19.5406 8.05699 19.1652 8.02985 18.7893 8.03239H15.3866C15.2571 8.03229 15.1318 8.0781 15.0334 8.16154C14.9351 8.24499 14.8701 8.36055 14.8502 8.48735L14.1263 13.0305L14.1055 13.1631C14.128 13.0185 14.2021 12.8866 14.3142 12.7914C14.4263 12.6961 14.5692 12.6438 14.7169 12.6439H15.9906C18.4922 12.6439 20.4509 11.6372 21.0234 8.72492C21.0405 8.6387 21.0549 8.55477 21.0678 8.47267C20.9167 8.39417 20.7593 8.32836 20.5971 8.27592C20.5546 8.26194 20.5119 8.24864 20.4689 8.23602Z" fill="#222D65"/>
<path d="M14.85 8.48778C14.8697 8.36094 14.9347 8.24532 15.0331 8.16192C15.1316 8.07852 15.2569 8.03288 15.3864 8.03327H18.7891C19.1923 8.03327 19.5685 8.05942 19.912 8.11445C20.1444 8.15064 20.3735 8.20477 20.5974 8.27635C20.7663 8.33184 20.9232 8.39743 21.0681 8.4731C21.2384 7.3967 21.0667 6.66381 20.4794 6.00017C19.8319 5.26957 18.6632 4.95679 17.1678 4.95679H12.8265C12.521 4.95679 12.2605 5.17693 12.2133 5.47641L10.405 16.8344C10.3966 16.8871 10.3998 16.941 10.4144 16.9924C10.429 17.0438 10.4547 17.0914 10.4896 17.1321C10.5246 17.1727 10.568 17.2053 10.6169 17.2277C10.6658 17.2501 10.719 17.2617 10.7729 17.2618H13.4532L14.1261 13.031L14.85 8.48778Z" fill="#253B80"/>
</g>
<defs>
<clipPath id="clip0_0_4869">
<rect width="58" height="14" fill="white" transform="translate(10 5)"/>
</clipPath>
</defs>
</svg>

