<svg width="64" height="70" viewBox="0 0 64 70" fill="none" xmlns="http://www.w3.org/2000/svg">
<path d="M50.4054 49.7196L43.9071 47.5539L41.5743 42.8881C43.6759 40.749 45.1351 37.9187 45.6272 34.9665L45.9181 33.2227H48.4062C50.6679 33.2227 52.5078 31.3827 52.5078 29.1211V20.5078C52.5078 9.19981 43.308 0 32 0C20.663 0 11.4922 9.17342 11.4922 20.5078V29.1211C11.4922 30.9034 12.6353 32.4231 14.2266 32.9875V34.5898C14.2266 36.8514 16.0665 38.6914 18.3281 38.6914H19.5288C20.1215 39.9789 20.8886 41.1713 21.8221 42.2425C22.0157 42.4651 22.2176 42.6809 22.4245 42.8907L20.0929 47.5539L13.5945 49.7197C6.03875 52.2391 0.554688 60.1933 0.554688 68.6328C0.554688 69.3879 1.16678 70 1.92188 70H62.0781C62.8331 70 63.4453 69.3879 63.4453 68.6328C63.4453 60.1933 57.9614 52.2391 50.4054 49.7196ZM49.7734 29.1211C49.7734 29.875 49.1601 30.4883 48.4062 30.4883H46.3196C46.6672 27.7963 46.8988 24.9316 46.9919 22.1102C46.9946 22.0306 46.9968 21.9532 46.9993 21.875H49.7734V29.1211ZM15.5938 30.4883C14.8399 30.4883 14.2266 29.875 14.2266 29.1211V21.875H17.0017C17.0062 22.0176 17.011 22.1609 17.0163 22.3051C17.0164 22.31 17.0167 22.3148 17.0169 22.3197C17.0169 22.3202 17.0169 22.3206 17.0169 22.321C17.1126 25.0652 17.3412 27.8555 17.6808 30.4881H15.5938V30.4883ZM18.3281 35.957C17.5743 35.957 16.9609 35.3437 16.9609 34.5898V33.2227H18.0818L18.3727 34.9671C18.4282 35.2986 18.4964 35.6289 18.5753 35.957H18.3281ZM16.9633 19.1406H14.2785C14.971 9.9776 22.6179 2.73438 32 2.73438C41.3404 2.73438 49.0209 9.97664 49.7213 19.1406H47.0369C46.9384 11.5901 40.7898 5.46875 33.2238 5.46875H30.7765C23.2106 5.46875 17.0616 11.5901 16.9633 19.1406ZM30.7764 8.20312H33.2236C39.3499 8.20312 44.3082 13.214 44.3047 19.3334C44.3047 19.7637 44.3013 20.1383 44.294 20.4791C44.294 20.4835 44.2939 20.488 44.2939 20.4925L42.5838 20.2482C37.9381 19.5848 33.5516 17.3916 30.2324 14.0723C29.9759 13.816 29.6282 13.6719 29.2656 13.6719C25.5939 13.6719 22.0791 15.3448 19.7557 18.171C20.3283 12.604 25.0346 8.20312 30.7764 8.20312ZM21.4098 35.957C20.7254 33.6803 19.9422 26.981 19.7691 22.6881L21.6092 20.2345C23.2992 17.9819 25.9285 16.5823 28.7253 16.4217C32.4054 19.9239 37.1662 22.2366 42.1972 22.9549L44.2099 23.2426C44.0754 26.098 43.8005 28.9633 43.4066 31.5986C43.4064 31.5994 43.4063 31.6004 43.4062 31.6013C43.2809 32.4486 43.1822 32.9938 42.9301 34.5167C42.2061 38.8596 38.9655 42.7868 34.6878 43.8564C32.9272 44.2959 31.0725 44.2958 29.3129 43.8564C26.6419 43.1886 24.1927 41.3405 22.6121 38.6914H25.3992C25.9636 40.2827 27.4832 41.4258 29.2656 41.4258H32C34.2661 41.4258 36.1016 39.5905 36.1016 37.3242C36.1016 35.0626 34.2616 33.2227 32 33.2227H29.2656C27.4436 33.2227 25.9464 34.3995 25.3969 35.957H21.4098ZM29.1506 46.6233C30.0884 46.8208 31.0445 46.9219 32 46.9219C32.748 46.9219 33.4961 46.8593 34.2358 46.7379L31.8199 49.2927L29.1506 46.6233ZM29.9403 51.2803L25.6039 55.8662C24.4101 53.581 23.3843 51.2028 22.5429 48.7681L24.1713 45.5112L29.9403 51.2803ZM39.5969 45.048L41.4568 48.768C40.6141 51.2068 39.588 53.5858 38.3954 55.8682L33.7541 51.2269L39.5969 45.048ZM27.8984 37.3242C27.8984 36.5694 28.5107 35.957 29.2656 35.957H32C32.7539 35.957 33.3672 36.5704 33.3672 37.3242C33.3672 38.0792 32.7548 38.6914 32 38.6914H29.2656C28.5118 38.6914 27.8984 38.0781 27.8984 37.3242ZM3.34375 67.2656C3.88557 60.4927 8.39305 54.3365 14.4593 52.3137L20.2143 50.3958C21.2687 53.3113 22.5749 56.1451 24.1057 58.8368C24.1083 58.8414 24.1108 58.8461 24.1134 58.8506C24.1134 58.8507 24.1135 58.8507 24.1135 58.8509C25.232 60.8181 26.4909 62.7405 27.8558 64.5656L29.5377 67.2656H3.34375ZM32 66.0469L30.1458 63.0701C30.125 63.0368 30.1029 63.0044 30.0794 62.9729C28.9722 61.4961 27.9395 59.9516 26.9988 58.3707L31.8746 53.2145L37.0122 58.3521C36.0653 59.9445 35.029 61.4954 33.9209 62.9727C33.8539 63.0619 33.9489 62.9212 32 66.0469ZM34.4623 67.2656L36.1441 64.5657C37.515 62.7337 38.7829 60.7958 39.9126 58.8055C39.9194 58.7934 39.9259 58.7811 39.9327 58.7691C39.9335 58.7676 39.9343 58.7662 39.9352 58.7647C41.4466 56.0987 42.7391 53.2896 43.7857 50.3958L49.5406 52.3137C55.607 54.3365 60.1144 60.4927 60.6562 67.2656H34.4623Z" fill="#4B4E68"/>
</svg>
