<svg width="20" height="20" viewBox="0 0 20 20" fill="none" xmlns="http://www.w3.org/2000/svg">
<path d="M10.833 0.833444C10.833 0.61243 10.9208 0.400468 11.0771 0.244188C11.2333 0.0879075 11.4453 0.000110103 11.6663 0.000110103C13.8757 0.00253643 15.9939 0.881289 17.5562 2.44357C19.1185 4.00584 19.9972 6.12405 19.9996 8.33344C19.9996 8.55446 19.9118 8.76642 19.7556 8.9227C19.5993 9.07898 19.3873 9.16678 19.1663 9.16678C18.9453 9.16678 18.7333 9.07898 18.577 8.9227C18.4208 8.76642 18.333 8.55446 18.333 8.33344C18.331 6.56594 17.628 4.8714 16.3782 3.62159C15.1283 2.37178 13.4338 1.66876 11.6663 1.66678C11.4453 1.66678 11.2333 1.57898 11.0771 1.4227C10.9208 1.26642 10.833 1.05446 10.833 0.833444ZM11.6663 5.00011C12.5504 5.00011 13.3982 5.3513 14.0233 5.97642C14.6485 6.60154 14.9996 7.44939 14.9996 8.33344C14.9996 8.55446 15.0874 8.76642 15.2437 8.9227C15.4 9.07898 15.612 9.16678 15.833 9.16678C16.054 9.16678 16.266 9.07898 16.4222 8.9227C16.5785 8.76642 16.6663 8.55446 16.6663 8.33344C16.665 7.00777 16.1378 5.73677 15.2004 4.79937C14.263 3.86198 12.992 3.33477 11.6663 3.33344C11.4453 3.33344 11.2333 3.42124 11.0771 3.57752C10.9208 3.7338 10.833 3.94576 10.833 4.16678C10.833 4.38779 10.9208 4.59975 11.0771 4.75603C11.2333 4.91231 11.4453 5.00011 11.6663 5.00011ZM19.2438 13.9493C19.7267 14.4335 19.9979 15.0895 19.9979 15.7734C19.9979 16.4573 19.7267 17.1133 19.2438 17.5976L18.4855 18.4718C11.6605 25.0059 -4.94783 8.40178 1.48549 1.55511L2.44383 0.721777C2.92863 0.252341 3.57877 -0.007349 4.25358 -0.00111086C4.92839 0.00512727 5.57361 0.276792 6.04966 0.75511C6.07549 0.780944 7.61965 2.78678 7.61965 2.78678C8.07784 3.26813 8.33291 3.90755 8.33182 4.57211C8.33073 5.23667 8.07358 5.87526 7.61382 6.35511L6.64882 7.56844C7.18286 8.86604 7.96804 10.0453 8.95924 11.0385C9.95045 12.0317 11.1281 12.8193 12.4246 13.3559L13.6455 12.3851C14.1254 11.9257 14.7639 11.6689 15.4282 11.6679C16.0926 11.667 16.7318 11.9221 17.213 12.3801C17.213 12.3801 19.218 13.9234 19.2438 13.9493ZM18.0971 15.1609C18.0971 15.1609 16.103 13.6268 16.0771 13.6009C15.9055 13.4307 15.6735 13.3352 15.4317 13.3352C15.19 13.3352 14.958 13.4307 14.7863 13.6009C14.7638 13.6243 13.083 14.9634 13.083 14.9634C12.9697 15.0536 12.8349 15.1127 12.6919 15.1349C12.5488 15.1571 12.4024 15.1417 12.2671 15.0901C10.5875 14.4648 9.06193 13.4857 7.79368 12.2193C6.52543 10.953 5.54416 9.4288 4.91632 7.75011C4.86065 7.61299 4.84251 7.46352 4.86374 7.31706C4.88498 7.1706 4.94483 7.03244 5.03716 6.91678C5.03716 6.91678 6.37632 5.23511 6.39882 5.21344C6.56904 5.04177 6.66455 4.80979 6.66455 4.56803C6.66455 4.32626 6.56904 4.09429 6.39882 3.92261C6.37299 3.89761 4.83882 1.90178 4.83882 1.90178C4.66457 1.74553 4.43716 1.66186 4.2032 1.6679C3.96923 1.67394 3.74644 1.76925 3.58049 1.93428L2.62216 2.76761C-2.0795 8.42094 12.313 22.0151 17.2671 17.3334L18.0263 16.4584C18.2042 16.2937 18.3111 16.0662 18.3243 15.824C18.3375 15.5819 18.256 15.3441 18.0971 15.1609Z" fill="#979AB8"/>
</svg>
