<svg width="95" height="20" viewBox="0 0 95 20" fill="none" xmlns="http://www.w3.org/2000/svg">
<path fill-rule="evenodd" clip-rule="evenodd" d="M0 19.9998H7.16482C7.30067 14.9364 9.98399 11.6207 14.1913 10.5573C5.75169 9.90538 1.18726 16.4004 0 19.9998Z" fill="#4EFDEA"/>
<path fill-rule="evenodd" clip-rule="evenodd" d="M14.2488 17.3281C12.3677 14.6674 14.1967 11.6337 14.7638 11.124C10.5107 12.6214 9.93478 18.4791 10.2819 19.9744L18.1564 20C16.2241 19.2831 15.0218 18.3766 14.3108 17.4162C14.2488 17.3281 14.2488 17.3281 14.2488 17.3281Z" fill="#006BF1"/>
<path fill-rule="evenodd" clip-rule="evenodd" d="M6.74414 0V5.76537C10.8348 7.2145 22.2723 11.3355 14.9354 17.3281L14.9975 17.4161C17.2915 16.501 18.7793 15.2664 19.4644 13.9907C22.2248 8.84949 13.7648 3.36908 6.74414 0Z" fill="#7782F1"/>
<path d="M26.25 14.8925V5.48387H30.5571C31.4896 5.48387 32.2652 5.79301 32.8838 6.41129C33.5023 7.02061 33.8116 7.7509 33.8116 8.60215C33.8116 9.25627 33.6178 9.83871 33.23 10.3495C32.8422 10.8602 32.339 11.2052 31.7204 11.3844L33.9363 14.8925H32.0805L29.9616 11.586H27.8842V14.8925H26.25ZM30.4878 10.1882C30.9772 10.1882 31.388 10.0358 31.7204 9.73118C32.0528 9.41756 32.219 9.0233 32.219 8.54839C32.219 8.0914 32.0667 7.70609 31.762 7.39247C31.4573 7.07885 31.0557 6.92204 30.5571 6.92204H27.8842V10.1882H30.4878Z" fill="white"/>
<path d="M35.7637 8.72312C36.5024 8.00627 37.3887 7.64785 38.4228 7.64785C39.346 7.64785 40.1493 7.93907 40.8325 8.52151C41.525 9.09498 41.9497 9.81631 42.1066 10.6855C42.162 10.9005 42.1897 11.1156 42.1897 11.3306C42.1897 11.5188 42.1667 11.707 42.1205 11.8952H36.2208C36.3131 12.4238 36.5624 12.845 36.9686 13.1586C37.3841 13.4722 37.8688 13.629 38.4228 13.629C39.2722 13.629 39.9508 13.3333 40.4586 12.7419L41.8712 13.1048C41.5758 13.6783 41.1003 14.1398 40.4447 14.4892C39.7985 14.8297 39.1245 15 38.4228 15C37.361 15 36.4654 14.6416 35.736 13.9247C35.0159 13.2079 34.6558 12.3432 34.6558 11.3306C34.6558 10.3091 35.0251 9.43996 35.7637 8.72312ZM36.2208 10.7124H40.5694C40.4771 10.2375 40.2324 9.83871 39.8354 9.51613C39.4476 9.18459 38.9721 9.01882 38.4089 9.01882C37.8457 9.01882 37.3656 9.18459 36.9686 9.51613C36.5716 9.83871 36.3223 10.2375 36.2208 10.7124Z" fill="white"/>
<path d="M43.4661 5.48387H45.0588V8.73656C45.6589 8.01971 46.4483 7.65681 47.427 7.64785C47.4362 7.64785 47.4501 7.64785 47.4685 7.64785C48.4749 7.64785 49.329 8.00627 50.0306 8.72312C50.7323 9.431 51.0832 10.3002 51.0832 11.3306C51.0832 12.3522 50.7369 13.2213 50.0445 13.9382C49.352 14.6461 48.4795 15 47.427 15C46.4483 15 45.6589 14.6505 45.0588 13.9516V14.8925H43.4661V5.48387ZM45.6543 12.9301C46.1067 13.3781 46.6514 13.6022 47.2885 13.6022C47.9256 13.6022 48.4657 13.3781 48.9089 12.9301C49.3613 12.4821 49.5875 11.9489 49.5875 11.3306C49.5875 10.7124 49.3613 10.1792 48.9089 9.73118C48.4657 9.27419 47.9256 9.0457 47.2885 9.0457C46.6514 9.0457 46.1021 9.27419 45.6405 9.73118C45.188 10.1792 44.9618 10.7124 44.9618 11.3306C44.9618 11.9489 45.1927 12.4821 45.6543 12.9301Z" fill="white"/>
<path d="M53.9593 7.76882V14.8925H52.3666V7.76882H53.9593ZM52.4497 5.28226C52.6528 5.09409 52.8975 5 53.1837 5C53.4699 5 53.71 5.09409 53.9039 5.28226C54.107 5.46147 54.2085 5.68996 54.2085 5.96774C54.2085 6.24552 54.1116 6.47401 53.9177 6.65323C53.7146 6.8414 53.4699 6.93548 53.1837 6.93548C52.8975 6.93548 52.6528 6.84588 52.4497 6.66667C52.2466 6.47849 52.145 6.24552 52.145 5.96774C52.145 5.69893 52.2466 5.47043 52.4497 5.28226Z" fill="white"/>
<path d="M55.5568 14.8925V5.48387H57.1494V14.8925H55.5568Z" fill="white"/>
<path d="M63.5446 7.76882V14.8925H61.952V7.76882H63.5446ZM62.0351 5.28226C62.2382 5.09409 62.4829 5 62.7691 5C63.0553 5 63.2954 5.09409 63.4892 5.28226C63.6924 5.46147 63.7939 5.68996 63.7939 5.96774C63.7939 6.24552 63.697 6.47401 63.5031 6.65323C63.3 6.8414 63.0553 6.93548 62.7691 6.93548C62.4829 6.93548 62.2382 6.84588 62.0351 6.66667C61.832 6.47849 61.7304 6.24552 61.7304 5.96774C61.7304 5.69893 61.832 5.47043 62.0351 5.28226Z" fill="white"/>
<path d="M65.9731 8.72312C66.7117 8.00627 67.6027 7.64785 68.646 7.64785C69.6893 7.64785 70.5757 8.01075 71.305 8.73656C72.0437 9.45341 72.413 10.3136 72.413 11.3172C72.413 12.3297 72.0437 13.1989 71.305 13.9247C70.5664 14.6416 69.6801 15 68.646 15C67.6027 15 66.7117 14.6416 65.9731 13.9247C65.2345 13.1989 64.8652 12.3297 64.8652 11.3172C64.8652 10.3047 65.2345 9.43996 65.9731 8.72312ZM66.3609 11.3172C66.3609 11.9355 66.5825 12.4686 67.0257 12.9167C67.4688 13.3647 68.0089 13.5887 68.646 13.5887C69.2738 13.5887 69.8093 13.3647 70.2525 12.9167C70.6957 12.4686 70.9173 11.9355 70.9173 11.3172C70.9173 10.6989 70.6957 10.1703 70.2525 9.73118C69.8186 9.28315 69.2831 9.05914 68.646 9.05914C68.0089 9.05914 67.4688 9.28315 67.0257 9.73118C66.5825 10.1703 66.3609 10.6989 66.3609 11.3172Z" fill="white"/>
<path d="M73.4997 7.76882H75.0924V8.70968C75.6556 8.00179 76.4173 7.64785 77.3775 7.64785C78.2177 7.64785 78.9378 7.91219 79.5379 8.44086C80.1473 8.96057 80.452 9.65502 80.452 10.5242V14.8925H78.8593V10.9409C78.8593 10.3763 78.6839 9.92832 78.3331 9.59677C77.9915 9.25627 77.5667 9.08602 77.0589 9.08602C76.4773 9.08602 76.0018 9.29211 75.6325 9.7043C75.2724 10.1075 75.0924 10.6138 75.0924 11.2231V14.8925H73.4997V7.76882Z" fill="white"/>
<path d="M81.5397 13.9785C81.5397 13.6918 81.6413 13.4498 81.8444 13.2527C82.0567 13.0466 82.3106 12.9435 82.6061 12.9435C82.9015 12.9435 83.1508 13.0466 83.3539 13.2527C83.5571 13.4498 83.6586 13.6918 83.6586 13.9785C83.6586 14.2652 83.5571 14.5072 83.3539 14.7043C83.1508 14.9014 82.9015 15 82.6061 15C82.3106 15 82.0567 14.9014 81.8444 14.7043C81.6413 14.5072 81.5397 14.2652 81.5397 13.9785Z" fill="white"/>
<path d="M85.997 7.76882V14.8925H85.0275V7.76882H85.997ZM84.9998 5.3629C85.1383 5.23746 85.3091 5.17473 85.5122 5.17473C85.7246 5.17473 85.9 5.24194 86.0385 5.37634C86.177 5.50179 86.2462 5.66308 86.2462 5.86022C86.2462 6.05735 86.177 6.22312 86.0385 6.35753C85.9 6.48297 85.7246 6.5457 85.5122 6.5457C85.3091 6.5457 85.1383 6.48297 84.9998 6.35753C84.8613 6.22312 84.7921 6.05735 84.7921 5.86022C84.7921 5.66308 84.8613 5.49731 84.9998 5.3629Z" fill="white"/>
<path d="M88.574 8.72312C89.3034 8.00627 90.1897 7.64785 91.233 7.64785C92.2856 7.64785 93.1765 8.01075 93.9059 8.73656C94.6353 9.45341 95 10.3136 95 11.3172C95 12.3297 94.6353 13.1944 93.9059 13.9113C93.1673 14.6371 92.2763 15 91.233 15C90.1897 15 89.3034 14.6416 88.574 13.9247C87.8446 13.2079 87.4799 12.3387 87.4799 11.3172C87.4799 10.3047 87.8446 9.43996 88.574 8.72312ZM89.2387 13.3065C89.7835 13.853 90.4482 14.1263 91.233 14.1263C92.027 14.1263 92.6964 13.853 93.2412 13.3065C93.7951 12.7599 94.0721 12.0968 94.0721 11.3172C94.0721 10.5376 93.7951 9.87903 93.2412 9.3414C92.6964 8.7948 92.027 8.52151 91.233 8.52151C90.439 8.52151 89.7696 8.7948 89.2249 9.3414C88.6802 9.87903 88.4078 10.5376 88.4078 11.3172C88.4078 12.1057 88.6848 12.7688 89.2387 13.3065Z" fill="white"/>
<path d="M58.7256 14.8915V5.48291H60.3182V14.8915H58.7256Z" fill="white"/>
</svg>
